<svg width="32" height="32" viewBox="0 0 32 32" fill="none" xmlns="http://www.w3.org/2000/svg">
<path d="M16 2.884C20.272 2.884 20.7787 2.9 22.4667 2.97733C26.8027 3.17467 28.828 5.232 29.0253 9.536C29.1027 11.2227 29.1173 11.7293 29.1173 16.0013C29.1173 20.2747 29.1013 20.78 29.0253 22.4667C28.8267 26.7667 26.8067 28.828 22.4667 29.0253C20.7787 29.1027 20.2747 29.1187 16 29.1187C11.728 29.1187 11.2213 29.1027 9.53467 29.0253C5.188 28.8267 3.17333 26.76 2.976 22.4653C2.89867 20.7787 2.88267 20.2733 2.88267 16C2.88267 11.728 2.9 11.2227 2.976 9.53467C3.17467 5.232 5.19467 3.17333 9.53467 2.976C11.2227 2.9 11.728 2.884 16 2.884ZM16 0C11.6547 0 11.1107 0.0186667 9.404 0.096C3.59333 0.362667 0.364 3.58667 0.0973333 9.40267C0.0186667 11.1107 0 11.6547 0 16C0 20.3453 0.0186667 20.8907 0.096 22.5973C0.362667 28.408 3.58667 31.6373 9.40267 31.904C11.1107 31.9813 11.6547 32 16 32C20.3453 32 20.8907 31.9813 22.5973 31.904C28.4027 31.6373 31.64 28.4133 31.9027 22.5973C31.9813 20.8907 32 20.3453 32 16C32 11.6547 31.9813 11.1107 31.904 9.404C31.6427 3.59867 28.4147 0.364 22.5987 0.0973333C20.8907 0.0186667 20.3453 0 16 0V0ZM16 7.784C11.4627 7.784 7.784 11.4627 7.784 16C7.784 20.5373 11.4627 24.2173 16 24.2173C20.5373 24.2173 24.216 20.5387 24.216 16C24.216 11.4627 20.5373 7.784 16 7.784ZM16 21.3333C13.0547 21.3333 10.6667 18.9467 10.6667 16C10.6667 13.0547 13.0547 10.6667 16 10.6667C18.9453 10.6667 21.3333 13.0547 21.3333 16C21.3333 18.9467 18.9453 21.3333 16 21.3333ZM24.5413 5.54C23.48 5.54 22.62 6.4 22.62 7.46C22.62 8.52 23.48 9.38 24.5413 9.38C25.6013 9.38 26.46 8.52 26.46 7.46C26.46 6.4 25.6013 5.54 24.5413 5.54Z" fill="#313131"/>
</svg>
