<svg width="584" height="608" viewBox="0 0 584 608" fill="none" xmlns="http://www.w3.org/2000/svg">
<path d="M458.679 48.7256L415.894 59.4365C413.342 60.0753 411.816 62.5674 412.485 65.0026C413.155 67.4378 415.766 68.8941 418.318 68.2552L461.104 57.5443C463.656 56.9055 465.182 54.4134 464.512 51.9782C463.843 49.543 461.231 48.0868 458.679 48.7256Z" fill="#FFD200"/>
<path opacity="0.3" d="M254.785 608C395.499 608 509.57 592.44 509.57 573.244C509.57 554.049 395.499 538.488 254.785 538.488C114.071 538.488 0 554.049 0 573.244C0 592.44 114.071 608 254.785 608Z" fill="#E6E6E6"/>
<path d="M259.386 534.677C259.386 534.677 284.51 530.577 288.656 554.937C288.738 555.444 288.711 555.961 288.579 556.458C288.446 556.954 288.21 557.42 287.885 557.828C287.559 558.235 287.15 558.576 286.684 558.83C286.217 559.083 285.701 559.244 285.168 559.303C273.988 560.568 262.68 560.389 251.55 558.772C232.037 555.733 243.361 532.651 259.386 534.677Z" fill="#EFEFEF"/>
<path d="M118.749 561.86C118.749 561.86 124.436 523.51 154.135 513.235L218.565 502.405C218.565 502.405 264.492 506.288 262.647 559.641C215.214 568.662 166.462 569.413 118.749 561.86Z" fill="#E6E6E6"/>
<path d="M385.262 348.89C385.262 348.89 346.488 339.242 350.355 359.768V498.044H364.105C366.458 498.044 368.715 497.152 370.379 495.565C372.043 493.977 372.977 491.824 372.977 489.578V456.318C377.148 455.787 381.748 453.472 382.961 446.163C385.312 432.078 382.961 369.102 382.961 369.102C382.961 369.102 412.484 363.168 429.571 372.069V353.521L385.262 348.89Z" fill="#FFD200"/>
<path d="M492.727 -1.45487e-06C492.727 -1.45487e-06 415.634 -0.00012447 388.827 70.9593C388.827 70.9593 456.971 110.057 525.672 70.9593L492.727 -1.45487e-06Z" fill="#FFD200"/>
<path d="M161.264 127.71C161.264 127.71 100.601 239.6 175.241 254.796C249.882 269.991 270.912 179.374 270.912 179.374C270.912 179.374 259.058 135.959 239.266 136.948C219.475 137.937 201.2 172.114 190.281 196.957C189.533 198.665 188.216 200.089 186.534 201.01C184.852 201.932 182.899 202.299 180.977 202.054C179.055 201.81 177.27 200.968 175.9 199.658C174.53 198.349 173.65 196.645 173.396 194.811C170.869 177.228 164.474 153.808 176.606 132.727C176.606 132.727 193.491 122.911 187.677 109.621C181.864 96.3311 161.264 107.715 161.264 127.71Z" fill="#F4A28C"/>
<path opacity="0.58" d="M434.018 540.152C434.018 540.152 415.289 535.328 411.27 518.637C411.27 518.637 440.287 513.042 441.121 541.623L434.018 540.152Z" fill="#68E1FD"/>
<path opacity="0.73" d="M436.294 538.487C436.294 538.487 423.226 518.734 434.727 500.282C434.727 500.282 456.793 513.668 446.986 538.536L436.294 538.487Z" fill="#68E1FD"/>
<path d="M439.681 538.488C439.681 538.488 446.581 517.649 467.485 513.693C467.485 513.693 471.403 527.248 453.962 538.56L439.681 538.488Z" fill="#68E1FD"/>
<path d="M426.082 538.029L429.899 562.824L453.81 562.921L457.324 538.15L426.082 538.029Z" fill="#24285B"/>
<path d="M143.797 163.335L171.753 168.714L176.808 132.824C176.808 132.824 191.974 125.202 191.645 116.109C191.694 114.195 191.27 112.296 190.408 110.566C189.547 108.837 188.272 107.324 186.685 106.151C185.099 104.977 183.246 104.176 181.276 103.811C179.306 103.446 177.273 103.528 175.342 104.05C165.232 106.727 161.187 122.091 157.876 132.872C154.565 143.654 143.797 163.335 143.797 163.335Z" fill="#24285B"/>
<path d="M413.838 59.9797L111.16 135.751C108.608 136.39 107.082 138.882 107.752 141.318C108.421 143.753 111.033 145.209 113.585 144.57L416.263 68.7985C418.815 68.1596 420.341 65.6676 419.671 63.2323C419.002 60.7971 416.39 59.3409 413.838 59.9797Z" fill="#FFD200"/>
<path d="M203.372 182.027C203.164 175.719 204.268 169.433 206.622 163.535C208.976 157.636 212.533 152.242 217.086 147.663C221.639 143.085 227.099 139.414 233.149 136.863C239.199 134.312 245.719 132.93 252.333 132.8C286.885 132.124 340.8 116.205 361.248 145.511C392.49 190.566 341.937 317.337 341.937 317.337H248.541C248.541 317.337 205.167 232.316 203.372 182.027Z" fill="#68E1FD"/>
<path d="M271.568 86.5386L285.672 133.933L256.15 145.51L257.237 104.604L271.568 86.5386Z" fill="#F4A28C"/>
<path opacity="0.31" d="M256.604 113.553C260.422 112.173 263.728 109.748 266.108 106.582C266.108 106.582 266.891 116.616 256.654 127.759L256.604 113.553Z" fill="#CE8172"/>
<path d="M239.366 88.0825C239.366 88.0825 240.832 104.773 245.887 115.193C246.367 116.201 247.051 117.109 247.899 117.865C248.747 118.62 249.744 119.209 250.831 119.597C251.918 119.984 253.075 120.163 254.234 120.124C255.394 120.084 256.535 119.826 257.59 119.365C263.05 116.953 269.722 112.13 270.026 103.061L272.553 87.7931C272.709 84.6842 271.852 81.6055 270.101 78.9799C268.349 76.3542 265.789 74.3102 262.771 73.1285C251.7 68.0875 237.874 77.9765 239.366 88.0825Z" fill="#F4A28C"/>
<path d="M243.79 88.0339C249.162 87.3346 254.429 86.0394 259.486 84.1748C258.358 86.6741 258.023 89.4341 258.522 92.1134C259.02 94.7927 260.331 97.2737 262.292 99.2495C264.154 101.203 266.67 102.479 269.409 102.857C272.148 103.235 274.94 102.693 277.306 101.324L273.085 80.1951C272.585 77.1507 271.23 74.2923 269.166 71.9229C267.101 69.5534 264.403 67.7613 261.357 66.7365C258.732 65.8272 256.047 65.0859 253.319 64.5175C246.469 63.1668 237.875 68.8108 231.379 65.6752C230.725 65.3634 229.997 65.2183 229.266 65.2538C228.536 65.2893 227.827 65.5043 227.209 65.878C226.592 66.2517 226.085 66.7713 225.74 67.3865C225.394 68.0018 225.221 68.6918 225.237 69.3896C225.439 76.0225 228.548 85.9355 238.33 87.9133C240.13 88.243 241.976 88.2837 243.79 88.0339Z" fill="#24285B"/>
<path d="M260.345 99.0805C260.345 99.0805 259.309 92.713 264.39 92.3512C269.47 91.9894 271.063 101.179 264.39 103.205L260.345 99.0805Z" fill="#F4A28C"/>
<path d="M240.832 98.5498L237.218 105.786C237.013 106.194 236.919 106.644 236.946 107.096C236.974 107.548 237.12 107.986 237.373 108.369C237.625 108.752 237.975 109.067 238.39 109.286C238.805 109.505 239.271 109.62 239.745 109.621H246.57L240.832 98.5498Z" fill="#F4A28C"/>
<path d="M167.683 116.012C167.683 116.012 164.473 125.829 175.822 124.43C187.171 123.031 190.381 122.018 191.544 116.012C192.707 110.006 171.171 109.548 167.683 116.012Z" fill="#F4A28C"/>
<path d="M246.621 132.727C246.621 132.727 245.585 124.695 256.731 124.575C260.84 126.344 265.409 126.899 269.851 126.168C274.293 125.437 278.404 123.454 281.654 120.474C281.654 120.474 302.861 120.281 304.58 136.538C306.298 152.794 266.109 194.231 266.109 194.231C266.109 194.231 241.692 161.043 246.621 132.727Z" fill="#68E1FD"/>
<path opacity="0.09" d="M320.403 157.329C316.131 162.476 313.026 168.414 311.285 174.767C309.545 181.12 309.207 187.748 310.292 194.232C314.362 215.577 348.586 275.779 311.48 317.241H341.812C341.23 319.194 359.303 265.095 364.358 243.411C367.467 230.29 320.403 157.329 320.403 157.329Z" fill="black"/>
<path opacity="0.68" d="M246.621 132.727C246.621 132.727 245.585 124.695 256.731 124.575C260.84 126.344 265.409 126.899 269.851 126.168C274.293 125.437 278.404 123.454 281.654 120.474C281.654 120.474 302.861 120.281 304.58 136.538C306.298 152.794 266.109 194.231 266.109 194.231C266.109 194.231 241.692 161.043 246.621 132.727Z" fill="white"/>
<path d="M320.251 171.704C313.932 147.175 341.963 127.3 364.535 140.469C383.872 151.757 402.45 173.007 407.252 212.997C417.944 303.396 407.252 348.596 407.252 348.596L387.259 344.906C387.259 344.906 372.093 226.962 343.379 210.15C331.322 203.083 324.245 187.454 320.251 171.704Z" fill="#F4A28C"/>
<path d="M338.678 206.749C338.678 206.749 380.257 194.473 400.858 178.168C400.858 178.168 407.834 196.692 407.252 212.996C391.914 220.627 375.672 226.473 358.874 230.411C351.539 223.01 344.789 215.101 338.678 206.749Z" fill="#24285B"/>
<path d="M387.258 344.906C387.258 344.906 374.468 379.565 393.097 379.589C421.609 379.589 407.252 348.596 407.252 348.596L387.258 344.906Z" fill="#24285B"/>
<path opacity="0.46" d="M376.768 374.669C376.768 369.833 372.66 365.914 367.593 365.914C362.525 365.914 358.417 369.833 358.417 374.669V442.469C358.417 447.304 362.525 451.224 367.593 451.224C372.66 451.224 376.768 447.304 376.768 442.469V374.669Z" fill="white"/>
<path d="M248.542 317.337C248.542 317.337 129.743 338.128 149.611 395.797C169.478 453.467 185.73 481.252 185.73 481.252L210.021 470.133L200.087 408.87C199.58 405.748 199.743 402.56 200.569 399.5C201.394 396.44 202.864 393.572 204.888 391.072C206.913 388.572 209.449 386.491 212.344 384.956C215.238 383.421 218.43 382.465 221.724 382.146C264.921 377.925 346.993 363.767 341.837 317.337H248.542Z" fill="#24285B"/>
<path d="M341.939 317.337L335.923 536.823H309.636C309.636 536.823 310.799 398.692 264.973 343.482L341.939 317.337Z" fill="#24285B"/>
<path d="M154.212 421.388L200.088 408.87L214.268 481.252L218.641 502.381L154.212 513.211L183.987 488.464L154.212 421.388Z" fill="#68E1FD"/>
<path d="M210.021 327.636L234.565 382.315L263.152 377.153L238.432 319.459C228.7 321.274 219.182 324.013 210.021 327.636Z" fill="#FFD200"/>
<path d="M302.228 447.896L338.171 451.248L337.539 527.755C337.492 533.464 339.351 539.04 342.847 543.674L358.417 564.248L317.646 557.663L302.228 554.238L307.738 534.677L302.228 447.896Z" fill="#68E1FD"/>
<path d="M103.456 541.695C116.777 528.671 153.706 530.166 158.634 544.324C160.505 549.679 161.971 555.009 163.058 559.592C163.488 561.383 163.544 563.238 163.223 565.05C162.902 566.862 162.21 568.595 161.187 570.152C160.164 571.709 158.829 573.058 157.259 574.122C155.689 575.186 153.915 575.945 152.037 576.355C134.672 580.142 63.5702 580.696 103.456 541.695Z" fill="#D3D3D3"/>
<path d="M187.854 423.269L205.143 419.193L216.593 481.252L202.236 484.026L187.854 423.269Z" fill="#68E1FD"/>
<path opacity="0.35" d="M187.854 423.269L205.143 419.193L216.593 481.252L202.236 484.026L187.854 423.269Z" fill="white"/>
<path d="M232.694 283.136C232.694 283.136 239.695 305.711 248.542 317.337H341.938C346.6 306.17 350.567 294.749 353.818 283.136C353.818 283.136 307.638 293.169 232.694 283.136Z" fill="#FFD200"/>
<path d="M350.986 298.668H308.067V339.623H350.986V298.668Z" fill="#FFD200"/>
<path opacity="0.09" d="M350.986 298.668H308.067V339.623H350.986V298.668Z" fill="black"/>
<path d="M329.527 318.23C332.556 318.23 335.012 315.886 335.012 312.996C335.012 310.105 332.556 307.762 329.527 307.762C326.498 307.762 324.042 310.105 324.042 312.996C324.042 315.886 326.498 318.23 329.527 318.23Z" fill="white"/>
</svg>
