<svg width="446" height="296" viewBox="0 0 446 296" fill="none" xmlns="http://www.w3.org/2000/svg">
<path d="M14.9318 123.423C14.9318 123.423 -63.6524 266.591 143.249 268.6C350.151 270.608 444.721 248.62 445.658 175.745C446.595 102.87 372.084 34.8984 242.199 34.129C112.314 33.3595 42.0856 60.8247 14.9318 123.423Z" fill="#FDFFF3"/>
<path d="M295.521 296V238.631L366.621 233.506L379.325 296H295.521Z" fill="#68E1FD"/>
<path d="M282.315 209.379L299.965 229.41V238.318L362.16 233.831L359.009 209.379C359.009 209.379 366.621 180.244 357.101 161.282C352.863 152.493 350.984 143.079 351.59 133.661C352.059 124.988 336.607 122.993 333.811 131.391C332.341 137.353 331.712 143.43 331.936 149.506C331.979 152.573 331.185 155.609 329.608 158.4C325.81 165.169 319.474 178.458 323.272 185.904L315.951 214.961L282.315 209.379Z" fill="#F4A28C"/>
<path opacity="0.09" d="M315.95 214.895L322.238 236.714L299.965 238.318V229.41L282.315 209.379L315.95 214.895Z" fill="black"/>
<path d="M83.0587 62.2597C83.0587 62.2597 68.6737 64.868 66.6533 50.6529C64.6329 36.4378 66.6533 31.0908 66.6533 31.0908H100.482C100.482 31.0908 117.647 65.3244 83.0587 62.2597Z" fill="#68E1FD"/>
<path opacity="0.08" d="M83.0587 62.2597C83.0587 62.2597 68.6737 64.868 66.6533 50.6529C64.6329 36.4378 66.6533 31.0908 66.6533 31.0908H100.482C100.482 31.0908 117.647 65.3244 83.0587 62.2597Z" fill="black"/>
<path d="M108.434 14.2151C108.434 14.2151 96.7001 13.9804 94.0494 27.426C91.3987 40.8717 97.8315 59.5078 83.0586 62.2595H124.323C124.323 62.2595 149.715 15.0498 108.434 14.2151Z" fill="#24285B"/>
<path d="M134.198 14.2148H108.435C112.803 15.8588 116.566 18.3926 119.352 21.5667C122.138 24.7407 123.851 28.4455 124.323 32.3163V209.992C124.323 215.675 127.121 221.125 132.101 225.143C137.081 229.161 143.835 231.419 150.878 231.419H306.98C310.467 231.419 313.919 230.865 317.14 229.788C320.361 228.711 323.287 227.132 325.752 225.142C328.217 223.152 330.171 220.79 331.504 218.191C332.837 215.591 333.522 212.805 333.52 209.992V37.8458C333.52 34.7449 332.762 31.6743 331.291 28.8096C329.82 25.9449 327.664 23.3421 324.945 21.15C322.227 18.9579 319 17.2195 315.449 16.034C311.898 14.8485 308.092 14.2392 304.249 14.2409L134.198 14.2148Z" fill="#68E1FD"/>
<path opacity="0.08" d="M233.729 93.0889C233.729 93.0889 259.59 128.301 225.502 155.387C191.415 182.474 149.052 171.82 149.052 171.82L127.701 215.691L112.152 200.224L129.382 162.938L141.31 142.737L189.799 126.018L233.729 93.0889Z" fill="black"/>
<path opacity="0.35" d="M189.847 50.2227H284.287C288.107 50.2227 291.77 51.4469 294.47 53.626C297.171 55.8052 298.688 58.7607 298.688 61.8425V145.699C298.688 148.78 297.171 151.736 294.47 153.915C291.77 156.094 288.107 157.318 284.287 157.318H189.847V50.2227Z" fill="white"/>
<path d="M143.718 148.119L126.373 139.914L107.041 166.522L124.387 174.727L143.718 148.119Z" fill="#24285B"/>
<path opacity="0.29" d="M143.718 148.119L126.373 139.914L107.041 166.522L124.387 174.727L143.718 148.119Z" fill="white"/>
<path d="M164.94 159.235C203.521 159.235 234.796 134 234.796 102.871C234.796 71.7412 203.521 46.5059 164.94 46.5059C126.36 46.5059 95.084 71.7412 95.084 102.871C95.084 134 126.36 159.235 164.94 159.235Z" fill="#FFD200"/>
<path d="M164.94 142.724C192.22 142.724 214.334 124.881 214.334 102.87C214.334 80.8591 192.22 63.0156 164.94 63.0156C137.661 63.0156 115.546 80.8591 115.546 102.87C115.546 124.881 137.661 142.724 164.94 142.724Z" fill="white"/>
<path d="M127.61 169.782L110.627 161.749C106.692 159.888 101.632 160.953 99.325 164.128L66.9473 208.692C64.6404 211.867 65.9604 215.95 69.8955 217.811L86.8788 225.844C90.8139 227.706 95.8741 226.641 98.181 223.466L130.559 178.902C132.866 175.727 131.546 171.644 127.61 169.782Z" fill="#24285B"/>
<path d="M58.5397 206.041C59.1339 199.944 61.3731 194.025 65.1004 188.699C68.8277 183.374 73.953 178.77 80.1173 175.211C88.2927 170.417 98.3893 168.255 108.435 169.147C140.243 172.016 133.649 210.67 118.132 232.645C102.616 254.62 79.7778 257.489 65.8292 246.013C56.7133 238.527 57.1174 218.991 58.5397 206.041Z" fill="#F4A28C"/>
<path d="M51.6221 228.198L38.417 296H115.53L118.197 237.966L51.6221 228.198Z" fill="#68E1FD"/>
<path d="M162.628 120.163C162.022 120.165 161.423 120.056 160.877 119.844C160.331 119.631 159.852 119.321 159.477 118.937L145.884 105.231C145.553 104.896 145.306 104.512 145.159 104.1C145.012 103.689 144.967 103.258 145.026 102.832C145.086 102.406 145.248 101.994 145.505 101.619C145.761 101.244 146.107 100.914 146.522 100.647C146.937 100.38 147.413 100.181 147.923 100.062C148.433 99.9436 148.967 99.9071 149.495 99.9549C150.023 100.003 150.533 100.134 150.998 100.341C151.463 100.548 151.872 100.827 152.203 101.162L162.208 111.256L177.466 91.3808C177.737 91.0036 178.099 90.6741 178.531 90.4118C178.963 90.1495 179.455 89.9597 179.979 89.8537C180.503 89.7477 181.049 89.7276 181.583 89.7946C182.117 89.8616 182.628 90.0143 183.088 90.2438C183.548 90.4732 183.945 90.7747 184.258 91.1304C184.571 91.4861 184.791 91.8888 184.908 92.3146C185.024 92.7404 185.033 93.1807 184.935 93.6094C184.837 94.0382 184.633 94.4467 184.335 94.8107L166.039 118.624C165.692 119.071 165.218 119.444 164.655 119.712C164.093 119.98 163.459 120.135 162.806 120.163H162.628Z" fill="#24285B"/>
<path d="M298.688 178.471H164.94V206.001H298.688V178.471Z" fill="#24285B"/>
<path d="M369.886 0H254.337V65.4807H369.886V0Z" fill="#24285B"/>
<path d="M297.929 38.25H281.378V47.1051H297.929V38.25Z" fill="#FFD200"/>
<path d="M321.526 29.1084H304.976V47.1055H321.526V29.1084Z" fill="#FFD200"/>
<path d="M344.623 17.3057H328.072V47.1182H344.623V17.3057Z" fill="#FFD200"/>
<path d="M351.04 46.6357H276.48V50.4829H351.04V46.6357Z" fill="white"/>
</svg>
