<svg width="424" height="296" viewBox="0 0 424 296" fill="none" xmlns="http://www.w3.org/2000/svg">
<path d="M330.103 226.651C329.994 226.964 329.667 227.14 329.352 227.038C321.87 224.634 302.989 213.204 284.695 202.146C268.334 192.249 251.417 182.014 243.722 178.91C242.502 178.419 241.334 177.979 240.216 177.585C233.508 175.219 231.309 181.605 237.128 185.695L244.856 191.126C245.207 191.373 245.253 191.876 244.952 192.182C244.714 192.424 244.336 192.459 244.058 192.265L241.427 190.429C237.868 187.946 232.316 193.556 230.275 197.387C229.746 198.339 228.933 199.159 227.917 199.767C226.901 200.375 225.716 200.75 224.477 200.855C223.502 201.06 222.48 201.04 221.517 200.797C220.554 200.554 219.686 200.096 219.003 199.473C217.405 197.953 211.86 196.366 209.973 197.509C209.374 197.871 208.755 198.145 208.116 198.312C207.098 198.551 206.022 198.548 205.007 198.301C203.992 198.055 203.077 197.576 202.364 196.917C199.28 194.583 198.092 192.028 198.632 189.315C200.313 181.01 218.494 174.229 219.959 173.669C220.267 173.564 227.669 171.061 244.308 177.789C252.127 180.931 268.349 190.75 285.512 201.142C303.636 212.101 322.341 223.415 329.687 225.825C330.032 225.938 330.223 226.31 330.103 226.651ZM220.252 180.266C218.864 185.156 216.613 195.222 220.16 198.586C220.67 199.046 221.318 199.378 222.036 199.548C222.549 199.67 223.082 199.705 223.607 199.654C224.026 199.613 224.443 199.546 224.858 199.475C225.614 199.347 226.333 199.089 226.971 198.716C227.782 198.24 228.433 197.593 228.857 196.839C232.141 190.737 222.426 177.137 222.334 177.007L220.881 174.942C220.825 174.863 220.734 174.816 220.638 174.816C220.453 174.816 201.732 181.701 200.174 189.459C199.712 191.741 200.776 193.84 203.428 195.887C203.946 196.388 204.617 196.759 205.369 196.957C206.12 197.155 206.921 197.172 207.684 197.008C212.511 195.704 216.659 186.147 218.679 180.136C218.97 179.071 219.236 178.222 219.409 177.697C219.518 177.367 219.857 177.177 220.196 177.249C220.663 177.348 220.978 177.914 220.842 178.371C220.698 178.857 220.505 179.507 220.252 180.266Z" fill="#24285B"/>
<path opacity="0.8" d="M212.172 296C329.147 296 423.975 289.035 423.975 280.444C423.975 271.853 329.147 264.889 212.172 264.889C95.1957 264.889 0.368164 271.853 0.368164 280.444C0.368164 289.035 95.1957 296 212.172 296Z" fill="#FDFFF3"/>
<path d="M134.553 271.282C135.97 271.369 137.233 272.195 138.23 273.205C139.469 274.46 141.525 275.911 144.397 275.881C149.44 275.829 151.229 279.793 146.865 281.305C143.827 282.358 136.999 280.738 133.131 279.656C131.422 279.178 130.247 277.652 130.139 275.881L130.128 275.704C129.975 273.2 132.049 271.127 134.553 271.282Z" fill="#FFD200"/>
<path d="M87.4137 271.281C85.9937 271.369 84.7273 272.197 83.7272 273.209C82.4884 274.463 80.4331 275.911 77.5641 275.881C72.5215 275.829 70.7327 279.793 75.1122 281.305C78.1606 282.358 84.982 280.738 88.847 279.657C90.5558 279.178 91.7296 277.652 91.8379 275.881L91.8481 275.714C92.0014 273.205 89.9232 271.127 87.4137 271.281Z" fill="#FFD200"/>
<path d="M111.592 51.1083C111.26 46.3481 115.327 42.7647 119.867 44.2357C133.568 48.6757 158.54 62.2885 157.351 102.41C156.115 144.139 189.797 160.574 206.269 166.102C210.626 167.565 213.055 172.627 211.013 176.745C209.688 179.415 206.825 180.926 203.918 180.267C191.527 177.457 158.345 167.428 137.536 137.563C117.775 109.204 112.828 68.8248 111.592 51.1083Z" fill="#68E1FD"/>
<path opacity="0.44" d="M111.592 51.1083C111.26 46.3481 115.327 42.7647 119.867 44.2357C133.568 48.6757 158.54 62.2885 157.351 102.41C156.115 144.139 189.797 160.574 206.269 166.102C210.626 167.565 213.055 172.627 211.013 176.745C209.688 179.415 206.825 180.926 203.918 180.267C191.527 177.457 158.345 167.428 137.536 137.563C117.775 109.204 112.828 68.8248 111.592 51.1083Z" fill="white"/>
<path d="M106.918 20.8614C103.69 17.3692 97.8942 18.6641 96.4594 23.1981L93.5314 32.4501C92.0726 37.0596 95.043 41.8904 99.8148 42.6687C104.789 43.4801 109.248 39.5059 109.012 34.4715L108.558 24.7778C108.49 23.32 107.909 21.9331 106.918 20.8614Z" fill="#F4A28C"/>
<path opacity="0.31" d="M108.94 29.0484C108.925 27.9858 108.216 27.0743 107.25 26.6318C107.169 26.5947 107.089 26.5569 107.009 26.5184C105.063 25.5799 103.375 26.3389 104.243 28.3169C104.528 28.966 104.887 29.6629 105.339 30.3945C106.477 32.2349 108.971 31.212 108.94 29.0484Z" fill="#CE8172"/>
<path d="M88.2958 41.0589C88.9689 40.9261 89.7075 40.8781 90.3918 40.9266L112.387 42.4865C112.847 42.5191 113.283 42.5857 113.727 42.7095C119.363 44.2804 159.795 56.7712 158.045 91.4186C156.592 120.171 153.706 153.914 152.465 167.801C152.128 171.579 149.172 174.568 145.402 174.985L93.0342 180.783C90.4247 181.072 87.8612 180.085 86.202 178.05C70.5861 158.901 -5.18543 59.5154 88.2958 41.0589Z" fill="#68E1FD"/>
<path opacity="0.08" d="M72.8889 64.6774C75.0789 62.8656 78.1553 62.6797 80.5486 64.2129C87.5585 68.7035 101.285 79.7289 100.109 96.6466C98.5365 119.282 92.1832 144.982 119.817 142.361C126.197 141.756 131.522 140.895 135.939 139.929C143.114 138.359 154.153 145.886 153.542 153.206L152.332 167.706C152.014 171.518 149.042 174.571 145.24 174.992L93.1096 180.764C90.4077 181.063 87.7388 179.969 86.0233 177.861L83.3531 174.578C83.1847 174.371 83.045 174.184 82.9006 173.96C79.4965 168.673 34.2283 96.6622 72.8889 64.6774Z" fill="black"/>
<path d="M187.632 106.056L188.25 106.226C192.511 107.392 197.247 104.993 198.826 100.867L202.467 91.3587C204.047 87.2325 201.873 82.9419 197.612 81.7753L196.994 81.6062C192.732 80.4396 187.997 82.8387 186.417 86.9649L182.776 96.473C181.197 100.599 183.37 104.89 187.632 106.056Z" fill="#FFD200"/>
<path d="M175.213 112.339C177.016 114.199 179.865 114.574 181.949 113.036C186.137 109.947 192.12 104.611 189.642 100.807C187.292 97.1986 180.415 101.171 175.74 104.524C173.152 106.38 172.996 110.052 175.213 112.339Z" fill="#F4A28C"/>
<path d="M108.718 196.33C103.186 190.845 105.957 179.345 113.7 178.487L141.771 175.38C146.9 174.812 151.217 179.177 150.592 184.299L140.72 265.288C140.249 269.154 136.967 272.06 133.073 272.06C128.752 272.06 125.262 268.515 125.232 264.195C125.129 249.475 124.089 218.244 117.35 207.035C115.018 203.156 111.962 199.547 108.718 196.33Z" fill="#24285B"/>
<path d="M96.6824 181.955C92.3179 181.561 88.4486 184.752 88.0043 189.112L80.4516 263.223C79.9712 267.938 83.6714 272.034 88.4104 272.034H88.8509C92.7726 272.034 96.1281 269.205 96.9197 265.364C99.5943 252.387 106.647 223.239 119.427 202.939C123.528 196.424 119.41 184.007 111.743 183.315L96.6824 181.955Z" fill="#24285B"/>
<path d="M119.461 13.3504C119.414 13.4919 119.363 13.6327 119.316 13.7742C118.865 15.125 116.264 22.6205 112.585 27.175C112.191 27.6605 111.687 28.0755 111.103 28.3961C110.519 28.7167 109.866 28.9366 109.181 29.0432C108.496 29.1498 107.793 29.141 107.112 29.0173C106.432 28.8936 105.786 28.6575 105.214 28.3225C102.375 26.6347 99.1248 23.7122 99.5824 19.2792C99.6224 18.8926 99.667 18.5047 99.6765 18.1162L99.8627 10.4852C100.108 8.84549 100.949 7.31051 102.269 6.09158C103.589 4.87265 105.324 4.02971 107.234 3.67882C114.185 2.03261 121.166 8.22609 119.461 13.3504Z" fill="#F4A28C"/>
<path d="M116.779 13.1454C115.106 12.6897 113.47 12.1468 111.879 11.5201C110.334 10.9114 108.283 12.4591 107.622 13.9823C107.033 15.3401 105.987 16.5223 104.612 17.3831C103.3 18.2394 101.678 18.6842 100.021 18.6414C97.2164 18.5689 96.3505 15.3234 97.5018 12.765L100.341 6.45644C100.972 4.91258 102.083 3.54039 103.555 2.48307C105.028 1.42576 106.81 0.722085 108.714 0.445483C110.367 0.210615 112.036 0.0625565 113.71 0.00215832C117.905 -0.102153 122.377 3.61395 126.556 2.60995C126.975 2.50305 127.42 2.49002 127.847 2.57214C128.274 2.65426 128.668 2.82871 128.992 3.07843C129.315 3.32814 129.556 3.64456 129.691 3.99671C129.827 4.34885 129.851 4.72466 129.763 5.08735C128.915 8.52964 126.001 13.4584 120.002 13.6279C118.903 13.6246 117.813 13.4614 116.779 13.1454Z" fill="#24285B"/>
<path d="M104.689 18.137C105.4 17.698 105.998 17.043 106.062 16.2094C106.137 15.2218 105.869 13.9469 104.134 13.5495C101.766 13.0074 100.05 15.9168 101.349 17.9378C102.048 19.0255 103.588 18.816 104.689 18.137Z" fill="#F4A28C"/>
<path d="M115.078 21.4855C116.067 20.3424 117.924 20.7105 118.402 22.1443L118.676 22.9637C118.751 23.1947 118.757 23.4382 118.693 23.6717C118.628 23.9052 118.496 24.1213 118.307 24.3003C118.118 24.4793 117.88 24.6154 117.613 24.6962C117.346 24.7771 117.059 24.8 116.779 24.763L116.278 24.692C114.75 24.475 114.068 22.6528 115.078 21.4855Z" fill="#F4A28C"/>
<path d="M78.3662 65.2357C77.4506 62.7568 75.7463 60.5385 73.4398 58.8235C71.1333 57.1085 68.3135 55.9629 65.2887 55.512C62.264 55.061 59.1508 55.3221 56.2898 56.2667C53.4287 57.2113 50.93 58.803 49.0669 60.8676C42.143 68.5215 36.0981 79.8654 37.7327 95.8121C41.2794 130.105 53.801 169.717 82.4527 164.723C105.33 160.736 154.417 133.406 173.274 122.552C177.19 120.298 177.883 115.009 174.756 111.748C172.683 109.585 169.493 108.959 166.75 110.164C152.584 116.38 109.07 134.592 90.8416 132.1C72.9844 129.674 88.4051 92.6436 78.3662 65.2357Z" fill="#68E1FD"/>
<path opacity="0.44" d="M78.3662 65.2357C77.4506 62.7568 75.7463 60.5385 73.4398 58.8235C71.1333 57.1085 68.3135 55.9629 65.2887 55.512C62.264 55.061 59.1508 55.3221 56.2898 56.2667C53.4287 57.2113 50.93 58.803 49.0669 60.8676C42.143 68.5215 36.0981 79.8654 37.7327 95.8121C41.2794 130.105 53.801 169.717 82.4527 164.723C105.33 160.736 154.417 133.406 173.274 122.552C177.19 120.298 177.883 115.009 174.756 111.748C172.683 109.585 169.493 108.959 166.75 110.164C152.584 116.38 109.07 134.592 90.8416 132.1C72.9844 129.674 88.4051 92.6436 78.3662 65.2357Z" fill="white"/>
<path d="M242.446 9.66406H190.147C185.729 9.66406 182.147 13.2458 182.147 17.6641V46.6355C182.147 51.0537 185.729 54.6355 190.147 54.6355H242.446C246.864 54.6355 250.446 51.0537 250.446 46.6355V17.6641C250.446 13.2458 246.864 9.66406 242.446 9.66406Z" fill="#E6E6E6"/>
<path d="M331.001 219.075C331.093 218.952 331.191 218.829 331.296 218.717C332.263 217.688 337.732 212.423 346.115 215.053C353.826 217.478 356.987 223.033 363.248 222.72C363.86 222.694 364.472 222.784 365.038 222.984C365.604 223.183 366.111 223.487 366.52 223.873C366.929 224.259 367.232 224.718 367.404 225.216C367.577 225.713 367.617 226.237 367.519 226.749C366.903 229.865 364.651 233.008 357.696 231.482C345.175 228.705 349.893 239.879 338.513 235.524C327.214 231.201 324.579 227.712 331.001 219.075Z" fill="#24285B"/>
<path d="M336.948 218.833C335.851 219.533 334.396 219.24 333.656 218.169C332.137 215.973 334.772 213.296 336.992 214.781C338.443 215.752 338.42 217.893 336.948 218.833Z" fill="#24285B"/>
<path d="M341.757 217.536C340.361 217.874 338.967 216.975 338.698 215.565C338.19 212.903 341.675 211.434 343.226 213.656C344.238 215.106 343.475 217.12 341.757 217.536Z" fill="#24285B"/>
<path d="M345.082 221.326C346.002 221.326 346.748 220.696 346.748 219.918C346.748 219.14 346.002 218.51 345.082 218.51C344.163 218.51 343.417 219.14 343.417 219.918C343.417 220.696 344.163 221.326 345.082 221.326Z" fill="white"/>
<path d="M326.573 224.895C327.677 223.896 329.314 223.76 330.568 224.564L344.788 233.67C346.532 234.787 346.77 237.243 345.273 238.674C344.217 239.683 342.612 239.849 341.373 239.076L327.041 230.148C325.179 228.987 324.945 226.367 326.573 224.895Z" fill="#FFD200"/>
<path d="M323.324 227.832C323.324 227.832 306.608 241.171 286.407 236.542C266.206 231.913 257.2 247.182 264.062 254.458C270.925 261.733 351.961 272.83 343.479 240.389" fill="#24285B"/>
<path d="M272.929 247.91C272.929 246.343 271.677 245.045 270.127 244.816C267.134 244.374 262.193 243.204 257.552 240.109C250.758 235.578 240.464 235.984 246.096 241.897C250.189 246.194 257.484 249.592 269.87 250.714C271.507 250.862 272.929 249.554 272.929 247.91Z" fill="#24285B"/>
<path d="M292.905 252.452C293.67 253.109 294.289 253.943 294.606 254.9C295.863 258.696 297.725 268.808 282.027 269.126C270.656 269.356 267.603 272.922 267.018 275.822C266.667 277.56 265.371 279.557 263.598 279.557C262.521 279.557 261.577 278.846 261.397 277.784C260.826 274.417 260.406 267.225 266.576 264.927C269.661 263.778 270.053 262.007 269.348 260.247C267.719 256.184 266.09 251.479 269.765 249.098C274.782 245.848 282.849 243.819 292.905 252.452Z" fill="#24285B"/>
<path d="M337.311 247.938C340.834 246.455 344.837 248.542 345.638 252.28C346.847 257.745 350.325 262.665 355.445 266.153L362.44 270.92C363.272 271.488 363.391 272.669 362.688 273.39C362.241 273.85 361.565 274.002 360.964 273.78L344.173 267.561C341.797 266.685 339.818 265.185 338.529 263.284L334.426 257.24C332.217 253.987 333.539 249.526 337.163 248L337.311 247.938Z" fill="#24285B"/>
<path d="M334.569 247.648C338.169 248.236 340.032 252.277 338.143 255.397C335.14 260.34 334.33 266.03 335.861 271.435L337.853 278.581C338.149 279.641 337.464 280.725 336.38 280.913C335.644 281.04 334.904 280.715 334.5 280.089L325.915 266.78C324.68 264.856 324.204 262.65 324.558 260.482L325.854 252.532C326.407 249.138 329.607 246.836 333 247.391L334.569 247.648Z" fill="#24285B"/>
<path d="M298.763 258.139C302.694 257.996 306.135 260.987 305.077 264.775C304.36 267.343 302.953 270.139 300.24 272.23C297.247 274.535 295.839 276.581 295.195 278.128C294.601 279.553 293.207 281.135 291.664 281.135C290.633 281.135 289.7 280.456 289.568 279.433C289.372 277.913 289.49 276.37 289.923 274.876C290.427 272.921 290.412 270.895 289.879 268.944C289.346 266.994 288.307 265.168 286.839 263.598C285.083 261.682 286.378 258.589 288.975 258.495L298.763 258.139Z" fill="#24285B"/>
<path d="M212.95 172.878C213.664 171.441 215.074 170.471 216.679 170.438C221.315 170.34 230.549 170.8 230.26 176.041C230.011 180.563 221.777 180.047 215.995 179.119C213.094 178.654 211.643 175.51 212.95 172.878Z" fill="#F4A28C"/>
<path d="M214.617 40.6055C213.934 40.6055 213.257 41.0055 213.251 41.6877C213.22 42.0938 213.287 42.5011 213.448 42.8844C213.61 43.2676 213.864 43.6187 214.192 43.9159C214.521 44.213 214.919 44.4499 215.36 44.6119C215.802 44.7738 216.278 44.8574 216.76 44.8574C217.241 44.8574 217.717 44.7738 218.159 44.6119C218.6 44.4499 218.998 44.213 219.327 43.9159C219.656 43.6187 219.909 43.2676 220.071 42.8844C220.233 42.5011 220.3 42.0938 220.268 41.6877C220.267 40.9986 219.571 40.6055 218.882 40.6055H214.617Z" fill="#C1C1C1"/>
<path d="M195.717 51.2842C193.002 51.2842 191.071 53.9266 191.897 56.5135C193.095 60.2658 198.419 60.2231 199.556 56.4521C200.333 53.878 198.406 51.2842 195.717 51.2842Z" fill="#E6E6E6"/>
<path d="M249.443 63.2539C255.856 63.2539 261.055 58.8581 261.055 53.4355C261.055 48.013 255.856 43.6172 249.443 43.6172C243.03 43.6172 237.832 48.013 237.832 53.4355C237.832 58.8581 243.03 63.2539 249.443 63.2539Z" fill="#24285B"/>
<path d="M249.846 48.8984C250.765 48.8984 251.51 49.6435 251.51 50.5625V56.8923C251.51 57.5183 251.003 58.0257 250.377 58.0257C249.751 58.0257 249.243 57.5183 249.243 56.8923V52.1192C249.243 51.4859 248.57 51.0799 248.01 51.3758L247.886 51.4413C247.382 51.7075 246.776 51.3423 246.776 50.7725C246.776 50.4937 246.929 50.2375 247.175 50.1058L249.06 49.0957C249.302 48.9662 249.572 48.8984 249.846 48.8984Z" fill="white"/>
</svg>
