<svg width="693" height="508" viewBox="0 0 693 508" fill="none" xmlns="http://www.w3.org/2000/svg">
<path opacity="0.3" d="M137.123 24.4389C68.0707 47.8242 16.8303 107.146 6.73536 178.911C-1.76776 239.391 -24.9599 370.477 118.686 402.037C349.298 452.54 615.152 424.757 670.785 324.801C726.418 224.845 670.785 46.0221 527.945 22.2935C445.472 8.60555 272.005 -21.259 137.123 24.4389Z" fill="#E6E6E6"/>
<path opacity="0.45" d="M345.41 508C526.401 508 673.123 498.106 673.123 485.902C673.123 473.697 526.401 463.804 345.41 463.804C164.419 463.804 17.6968 473.697 17.6968 485.902C17.6968 498.106 164.419 508 345.41 508Z" fill="#E6E6E6"/>
<path d="M335.335 68.335H70.106V481.804H335.335V68.335Z" fill="#E6E6E6"/>
<path d="M443.054 148.359H354.759V219.867H443.054V148.359Z" fill="#E6E6E6"/>
<path d="M415.107 153.788H362.477V178.61H415.107V153.788Z" fill="#FFD200"/>
<path d="M373.176 183.116H362.477V190.11H373.176V183.116Z" fill="#B3B3B3"/>
<path d="M387.119 183.116H376.42V190.11H387.119V183.116Z" fill="#B3B3B3"/>
<path d="M401.164 183.116H390.464V190.11H401.164V183.116Z" fill="#B3B3B3"/>
<path d="M415.107 183.116H404.408V190.11H415.107V183.116Z" fill="#B3B3B3"/>
<path d="M373.176 193.07H362.477V200.064H373.176V193.07Z" fill="#B3B3B3"/>
<path d="M387.119 193.07H376.42V200.064H387.119V193.07Z" fill="#B3B3B3"/>
<path d="M401.164 193.07H390.464V200.064H401.164V193.07Z" fill="#B3B3B3"/>
<path d="M415.107 193.07H404.408V200.064H415.107V193.07Z" fill="#B3B3B3"/>
<path d="M373.176 203.004H362.477V209.998H373.176V203.004Z" fill="#B3B3B3"/>
<path d="M387.119 203.004H376.42V209.998H387.119V203.004Z" fill="#B3B3B3"/>
<path d="M401.164 203.004H390.464V209.998H401.164V203.004Z" fill="#B3B3B3"/>
<path d="M415.107 203.004H404.408V209.998H415.107V203.004Z" fill="#B3B3B3"/>
<path d="M431.428 169.835H424.86C421.922 169.835 419.54 172.371 419.54 175.499V197.34C419.54 200.468 421.922 203.004 424.86 203.004H431.428C434.366 203.004 436.748 200.468 436.748 197.34V175.499C436.748 172.371 434.366 169.835 431.428 169.835Z" fill="#B3B3B3"/>
<path d="M434.289 177.001H421.998V197.598H434.289V177.001Z" fill="#24285B"/>
<path d="M278.09 252.199C276.76 289.315 269.325 319.78 253.266 347.606C251.13 351.318 249.115 352.326 246.798 350.846C245.592 349.867 244.776 348.442 244.511 346.852C244.246 345.263 244.551 343.625 245.367 342.264C247.684 337.845 250.304 333.683 252.379 329.027C266.605 297.682 272.227 264.814 267.33 230.186C265.869 219.949 262.933 210.013 258.626 200.73C257.897 199.281 257.451 197.69 257.316 196.052C257.127 194.855 257.366 193.625 257.985 192.605C258.604 191.585 259.558 190.848 260.661 190.539C263.2 189.831 264.691 191.569 265.617 193.778C270.463 203.891 273.787 214.75 275.471 225.96C276.901 236.258 277.546 246.556 278.09 252.199Z" fill="#B3B3B3"/>
<path d="M206.962 130.359C207.044 131.06 206.986 131.771 206.793 132.446C206.6 133.122 206.274 133.746 205.839 134.279C205.404 134.811 204.867 135.24 204.266 135.537C203.664 135.834 203.01 135.992 202.347 136.002C174.339 137.01 154.109 152.093 138.715 175.843C132.284 185.979 127.439 197.159 124.369 208.947C123.24 213.023 121.447 214.718 118.989 214.117C118.32 213.862 117.706 213.467 117.184 212.955C116.661 212.443 116.24 211.825 115.945 211.138C115.65 210.45 115.488 209.706 115.467 208.95C115.446 208.194 115.568 207.442 115.825 206.737C126.081 170.265 144.861 141.43 180.304 128.514C187.074 126.047 194.549 125.704 201.743 124.76C205.047 124.223 206.982 126.669 206.962 130.359Z" fill="#B3B3B3"/>
<path d="M294.734 239.433C294.734 241.836 294.734 244.025 294.734 246.192C294.734 249.903 292.86 252.456 290.341 252.478C287.822 252.499 286.049 249.946 286.029 246.17C286.007 233.955 284.421 221.8 281.314 210.041C274.322 184.296 261.809 162.841 240.39 148.016C238.758 146.901 237.005 145.978 235.373 144.884C234.178 144.16 233.264 143.007 232.795 141.631C232.326 140.255 232.332 138.746 232.814 137.375C233.922 133.878 236.3 132.848 239.443 134.65C248.932 140.154 257.421 147.42 264.509 156.105C280.447 175.521 289.293 198.37 293.041 223.622C293.807 228.942 294.19 234.306 294.734 239.433Z" fill="#B3B3B3"/>
<path d="M203.073 170.329C204.483 170.329 206.438 170.329 208.352 170.694C209.672 171.009 210.828 171.853 211.578 173.052C212.329 174.251 212.617 175.711 212.382 177.13C212.386 177.831 212.251 178.524 211.985 179.165C211.719 179.806 211.328 180.379 210.839 180.848C210.35 181.316 209.773 181.668 209.146 181.882C208.519 182.095 207.857 182.165 207.203 182.086C191.084 180.413 178.672 187.407 168.698 200.129C158.724 212.852 154.391 228.299 153.807 244.862C153.828 245.997 153.747 247.132 153.565 248.252C153.472 249.332 153.011 250.339 152.268 251.082C151.526 251.825 150.554 252.253 149.535 252.285C148.522 252.332 147.532 251.954 146.779 251.231C146.025 250.509 145.568 249.501 145.505 248.423C145.257 245.569 145.257 242.696 145.505 239.841C147.037 219.159 153.565 200.773 167.831 186.098C172.425 181.106 177.908 177.14 183.96 174.432C190.011 171.725 196.509 170.33 203.073 170.329Z" fill="#B3B3B3"/>
<path d="M230.718 278.609C230.718 280.261 230.718 281.913 230.718 283.565C230.718 287.127 228.985 289.594 226.568 289.723C224.15 289.852 222.195 287.32 222.014 283.608C221.792 278.76 221.711 273.889 221.329 269.062C220.888 259.236 218.892 249.56 215.425 240.442C214.239 237.503 212.658 234.764 210.73 232.311C209.798 231.036 208.62 229.987 207.276 229.237C205.931 228.486 204.452 228.051 202.936 227.959C201.421 227.868 199.905 228.123 198.49 228.707C197.074 229.291 195.793 230.19 194.731 231.345C192.85 233.152 191.342 235.355 190.301 237.815C189.261 240.274 188.711 242.937 188.686 245.634C188.747 246.77 188.747 247.909 188.686 249.045C188.243 251.555 187.135 253.722 184.455 253.744C183.886 253.759 183.32 253.65 182.792 253.422C182.264 253.195 181.786 252.854 181.388 252.421C180.989 251.989 180.678 251.473 180.474 250.907C180.27 250.341 180.178 249.737 180.203 249.131C179.991 246.039 180.153 242.932 180.687 239.884C182.702 229.157 187.578 220.575 198.157 217.207C201.019 216.279 204.063 216.188 206.97 216.942C209.877 217.697 212.54 219.271 214.679 221.498C220.321 226.84 223.303 233.92 225.459 241.408C228.792 253.496 230.562 266.012 230.718 278.609Z" fill="#B3B3B3"/>
<path d="M259.794 276.099C255.764 310.061 243.916 341.878 218.367 366.701C215.223 369.747 213.289 370.048 211.375 367.902C210.312 366.542 209.791 364.793 209.923 363.03C210.055 361.266 210.829 359.627 212.08 358.462C215.808 354.536 219.697 350.76 223.082 346.512C238.496 327.203 246.818 304.354 250.465 279.467C250.767 277.322 250.928 275.369 251.19 273.331C251.674 269.598 253.427 267.41 255.784 267.539C258.142 267.667 260.036 270.371 259.794 276.099Z" fill="#B3B3B3"/>
<path d="M128.096 246.943C128.822 218.301 136.156 192.856 154.291 171.724C157.315 168.372 160.546 165.24 163.962 162.348C166.763 159.838 168.577 159.838 170.33 161.833C171.255 162.977 171.788 164.42 171.843 165.928C171.898 167.436 171.471 168.92 170.632 170.136C170.254 170.606 169.828 171.031 169.363 171.402C150.764 186.656 141.294 207.402 138.131 231.603C137.381 239.816 137.145 248.072 137.425 256.318C137.425 260.781 136.136 263.549 133.396 263.763C130.655 263.978 128.922 261.467 128.681 256.898C128.419 253.401 128.257 249.882 128.096 246.943Z" fill="#B3B3B3"/>
<path d="M202.086 194.122C207.255 194.119 212.359 195.344 217.026 197.709C221.694 200.073 225.807 203.516 229.066 207.788C230.182 209.543 230.648 211.675 230.376 213.774C230.203 214.593 229.847 215.357 229.338 215.999C228.83 216.641 228.184 217.144 227.454 217.464C226.633 217.521 225.809 217.391 225.038 217.084C224.267 216.777 223.566 216.3 222.981 215.683C216.07 208.153 207.929 204.205 198.036 206.2C187.699 208.346 181.03 215.533 176.375 225.188C176.051 226.269 175.583 227.295 174.985 228.234C173.937 229.285 172.526 230.658 171.317 230.616C170.59 230.483 169.901 230.174 169.304 229.713C168.706 229.251 168.216 228.65 167.872 227.955C167.166 226.387 167.05 224.591 167.549 222.935C173.211 208.389 182.279 197.79 197.492 194.658C199.013 194.394 200.547 194.215 202.086 194.122Z" fill="#B3B3B3"/>
<path d="M203.073 159.13C200.071 159.43 197.552 159.623 195.013 159.945C190.802 160.503 188.727 159.194 188.183 155.461C187.639 151.728 189.613 149.175 193.542 148.531C203.719 146.881 214.122 148.026 223.767 151.857C232.781 155.375 240.964 160.947 247.745 168.183C249.064 169.621 249.82 171.538 249.86 173.547C249.634 175.519 248.686 177.315 247.221 178.546C245.569 179.897 243.795 178.546 242.365 177.13C234.309 168.654 224.094 162.88 212.987 160.524C209.581 159.73 206.075 159.602 203.073 159.13Z" fill="#B3B3B3"/>
<path d="M158.2 295.301C158.258 309.909 156.392 324.453 152.659 338.51C151.551 342.544 149.697 344.281 147.218 343.509C144.74 342.737 143.188 339.39 144.216 335.785C147.853 322.882 149.6 309.458 149.395 295.987C149.213 288.178 148.125 280.369 147.38 272.559C147.174 271.14 147.107 269.702 147.178 268.268C147.46 265.822 148.568 263.849 151.208 263.72C152.244 263.671 153.258 264.05 154.039 264.778C154.82 265.505 155.307 266.525 155.399 267.625C156.286 272.924 157.051 278.245 157.575 283.587C158.019 287.963 158.019 292.426 158.2 295.301Z" fill="#B3B3B3"/>
<path d="M260.015 242.094C260.147 244.044 260.147 246.001 260.015 247.951C259.673 250.504 258.363 252.585 255.663 252.392C254.534 252.294 253.484 251.734 252.733 250.83C251.982 249.927 251.588 248.749 251.633 247.544C251.109 242.094 250.968 236.58 250.021 231.238C247.748 217.174 241.3 204.256 231.625 194.38C230.15 192.823 229.092 190.875 228.562 188.737C228.392 188.185 228.33 187.602 228.378 187.024C228.426 186.446 228.584 185.884 228.842 185.372C229.1 184.861 229.453 184.411 229.879 184.048C230.306 183.686 230.797 183.42 231.322 183.266C232.183 183.139 233.058 183.203 233.894 183.454C234.73 183.705 235.508 184.138 236.179 184.725C243.567 191.655 249.358 200.303 253.104 209.998C257.263 220.146 259.606 231.031 260.015 242.094Z" fill="#B3B3B3"/>
<path d="M211.999 304.548C210.747 324.855 207.188 344.925 201.4 364.32C200.312 367.988 198.58 369.362 196.101 368.718C193.623 368.074 192.071 364.642 192.958 361.316C194.308 356.038 195.88 350.825 197.129 345.526C200.437 331.611 202.508 317.395 203.315 303.067C203.315 302.874 203.315 302.66 203.315 302.445C203.597 298.734 205.451 296.245 207.869 296.309C210.286 296.374 212.14 299.098 212.06 303.003C212.06 303.518 212.019 304.033 211.999 304.548Z" fill="#B3B3B3"/>
<path d="M177.382 294.078C177.382 296.867 177.382 299.656 177.382 302.445C177.241 305.814 175.186 308.345 172.849 308.238C170.511 308.131 168.819 305.642 168.819 302.381C168.691 286.267 167.031 270.209 163.862 254.452C163.757 253.951 163.689 253.441 163.66 252.928C163.419 249.582 165.01 246.814 167.368 246.492C169.725 246.17 171.64 248.015 172.325 251.491C175.105 265.515 176.796 279.759 177.382 294.078Z" fill="#B3B3B3"/>
<path d="M126.303 291.761C126.021 294.744 125.215 297.125 122.495 297.661C119.774 298.198 118.465 296.095 117.699 293.714C113.046 278.678 110.685 262.946 110.707 247.115C110.653 245.681 111.05 244.269 111.835 243.103C112.325 242.516 112.919 242.04 113.583 241.701C114.247 241.362 114.968 241.168 115.704 241.129C116.731 241.293 117.663 241.859 118.319 242.716C118.975 243.573 119.307 244.659 119.251 245.763C119.492 249.067 119.512 252.371 119.674 255.675C120.32 266.93 122.352 278.045 125.719 288.736C125.961 289.733 126.157 290.743 126.303 291.761Z" fill="#B3B3B3"/>
<path d="M245.891 267.346C245.891 270.543 245.891 273.782 245.891 276.957C245.891 280.133 244.037 282.278 241.72 282.342C241.087 282.294 240.469 282.112 239.902 281.808C239.335 281.504 238.83 281.084 238.416 280.571C238.003 280.059 237.688 279.465 237.491 278.822C237.293 278.18 237.217 277.502 237.267 276.829C237.267 273.525 237.69 270.178 237.267 266.938C236.098 256.812 234.607 246.728 233.237 236.623C232.839 235.275 232.839 233.83 233.237 232.482C234.123 231.002 235.816 229.178 237.126 229.2C237.97 229.389 238.758 229.797 239.419 230.389C240.08 230.98 240.593 231.736 240.914 232.59C242.546 239.369 243.916 246.235 244.944 253.143C245.649 257.82 245.689 262.604 246.032 267.346H245.891Z" fill="#B3B3B3"/>
<path d="M193.905 302.767C193.562 308.152 193.139 314.739 192.676 321.347C192.608 322.169 192.459 322.982 192.232 323.771C192.052 324.801 191.525 325.725 190.749 326.369C189.973 327.013 189.003 327.333 188.021 327.268C187.027 327.228 186.083 326.799 185.369 326.062C184.654 325.325 184.221 324.334 184.152 323.278C183.921 321.743 183.921 320.178 184.152 318.643C185.446 306.001 185.337 293.241 183.83 280.626C183.691 279.509 183.745 278.375 183.991 277.279C184.132 276.252 184.619 275.314 185.36 274.64C186.101 273.965 187.046 273.6 188.021 273.611C189.024 273.605 189.992 273.998 190.737 274.712C191.482 275.426 191.951 276.41 192.051 277.472C192.611 280.823 193.001 284.203 193.22 287.599C193.522 292.254 193.643 296.91 193.905 302.767Z" fill="#B3B3B3"/>
<path d="M141.657 294.207C140.609 302.574 139.642 310.941 138.534 319.308C138.486 320.444 138.144 321.543 137.546 322.484C136.679 323.662 135.454 324.481 134.081 324.801C133.398 324.739 132.737 324.514 132.148 324.142C131.558 323.771 131.055 323.263 130.675 322.655C129.96 320.991 129.756 319.13 130.091 317.335C132.22 306.296 132.898 294.996 132.106 283.758C132.005 282.731 132.005 281.696 132.106 280.669C132.448 278.223 133.597 276.378 136.136 276.185C136.682 276.156 137.228 276.245 137.74 276.448C138.252 276.651 138.721 276.962 139.117 277.363C139.512 277.765 139.827 278.248 140.042 278.783C140.257 279.318 140.368 279.894 140.367 280.476C140.851 285.067 141.012 289.723 141.314 294.336L141.657 294.207Z" fill="#B3B3B3"/>
<path d="M292.718 271.165C291.65 283.563 289.042 295.755 284.961 307.423C283.832 310.598 281.979 311.842 279.802 311.134C278.618 310.634 277.646 309.691 277.068 308.483C276.489 307.275 276.344 305.883 276.659 304.569C277.122 302.273 278.15 300.085 278.674 297.789C280.467 289.336 282.18 280.883 283.893 272.409C284.114 271.315 284.135 270.156 284.397 269.041C284.941 266.766 286.089 264.986 288.426 265.029C290.764 265.072 292.013 266.852 292.456 269.148C292.595 269.811 292.682 270.486 292.718 271.165Z" fill="#B3B3B3"/>
<path d="M211.395 278.331C211.495 279.873 211.495 281.422 211.395 282.965C211.072 285.26 210.044 287.256 207.627 287.406C207.09 287.5 206.54 287.473 206.014 287.324C205.488 287.176 204.997 286.911 204.574 286.546C204.152 286.181 203.806 285.725 203.561 285.207C203.316 284.69 203.177 284.123 203.153 283.544C202.65 279.575 202.65 275.52 202.186 271.53C201.36 264.557 200.332 257.627 199.385 250.676C199.385 250.161 199.204 249.667 199.184 249.153C198.973 247.758 199.253 246.329 199.971 245.141C200.688 243.953 201.793 243.09 203.073 242.716C205.249 242.416 207.344 244.304 207.828 247.586C209.319 257.777 210.629 268.011 211.999 278.223L211.395 278.331Z" fill="#B3B3B3"/>
<path d="M229.529 304.655C228.299 316.221 225.72 327.579 221.852 338.467C221.484 339.248 220.94 339.919 220.269 340.421C219.597 340.923 218.819 341.239 218.004 341.342C217.175 341.11 216.407 340.681 215.758 340.086C215.109 339.491 214.595 338.747 214.256 337.909C213.84 336.136 213.917 334.273 214.478 332.546C216.493 322.913 218.689 313.237 220.805 303.689C220.805 303.389 220.805 303.089 220.946 302.788C221.57 299.57 223.444 297.661 225.661 297.918C227.877 298.176 229.59 300.75 229.529 304.655Z" fill="#B3B3B3"/>
<path d="M176.153 324.801C173.634 334.627 171.176 344.453 168.536 354.236C168.461 354.732 168.287 355.204 168.028 355.623C167.768 356.042 167.429 356.398 167.031 356.667C166.633 356.937 166.187 357.114 165.72 357.186C165.254 357.259 164.779 357.226 164.325 357.09C162.753 356.277 161.513 354.881 160.839 353.164C160.517 351.572 160.614 349.916 161.121 348.379C162.915 340.162 164.809 331.967 166.663 323.771C166.824 323.063 166.663 322.119 167.166 321.626C168.395 320.381 169.826 318.429 171.196 318.45C172.566 318.472 173.957 320.446 175.085 321.819C175.548 322.377 175.347 323.578 175.448 324.501L176.153 324.801Z" fill="#B3B3B3"/>
<path d="M189.774 340.462C189.109 343.316 188.283 347.135 187.256 350.911C186.228 354.687 185.241 357.991 184.011 361.509C183.797 362.589 183.2 363.54 182.344 364.163C181.489 364.786 180.44 365.034 179.417 364.856C178.353 364.639 177.399 364.016 176.735 363.103C176.071 362.191 175.742 361.052 175.811 359.9C175.741 358.868 175.837 357.83 176.093 356.832C177.772 350.582 179.484 344.338 181.231 338.102C181.916 335.678 183.125 333.811 185.905 333.983C188.021 334.198 189.714 336.686 189.774 340.462Z" fill="#B3B3B3"/>
<path d="M541.908 200.043H537.738C534.448 202.056 530.742 203.173 526.95 203.297C523.158 203.42 519.395 202.546 515.996 200.751C515.689 200.718 515.385 200.653 515.089 200.558C510.596 226.046 505.115 252.178 484.16 258.592C456.857 266.981 434.29 188.694 431.67 183.824C430.884 182.322 429.111 180.842 428.144 181.121C423.892 182.301 427.338 188.565 428.023 190.346C424.92 193.221 420.951 198.005 421.636 202.253C421.964 204.375 422.646 206.417 423.651 208.282C424.416 209.655 428.224 212.787 428.386 213.946C428.386 213.946 438.259 288.328 490.708 285.711C528.368 283.844 547.732 243.81 555.65 201.395C551.177 201.009 546.503 200.644 541.908 200.043Z" fill="#F4A28C"/>
<path opacity="0.08" d="M541.908 200.043H537.738C534.448 202.056 530.742 203.173 526.95 203.297C523.158 203.42 519.395 202.546 515.996 200.751C515.689 200.718 515.385 200.653 515.089 200.558C510.596 226.046 505.115 252.178 484.16 258.592C456.857 266.981 434.29 188.694 431.67 183.824C430.884 182.322 429.111 180.842 428.144 181.121C423.892 182.301 427.338 188.565 428.023 190.346C424.92 193.221 420.951 198.005 421.636 202.253C421.964 204.375 422.646 206.417 423.651 208.282C424.416 209.655 428.224 212.787 428.386 213.946C428.386 213.946 438.259 288.328 490.708 285.711C528.368 283.844 547.732 243.81 555.65 201.395C551.177 201.009 546.503 200.644 541.908 200.043Z" fill="black"/>
<path d="M555.207 170.758C555.207 170.758 518.656 163.056 513.518 194.529C510.752 212.561 506.019 230.187 499.413 247.05L527.34 256.683L555.207 170.758Z" fill="#68E1FD"/>
<path opacity="0.46" d="M555.207 170.758C555.207 170.758 518.656 163.056 513.518 194.529C510.752 212.561 506.019 230.187 499.413 247.05L527.34 256.683L555.207 170.758Z" fill="white"/>
<path d="M556.799 118.045C556.799 118.045 551.52 129.93 550.613 138.877C550.53 139.743 550.607 140.619 550.841 141.453C551.076 142.288 551.462 143.065 551.978 143.74C552.495 144.416 553.131 144.976 553.851 145.39C554.571 145.803 555.361 146.062 556.175 146.15C558.786 146.588 561.461 146.214 563.877 145.072C566.294 143.93 568.349 142.07 569.796 139.714L577.009 130.317C578.259 128.27 578.884 125.862 578.798 123.423C578.711 120.984 577.917 118.633 576.526 116.693C571.73 109.184 559.66 110.621 556.799 118.045Z" fill="#F4A28C"/>
<path d="M572.515 132.505L575.095 170.737L555.207 170.758L561.151 143.64L572.515 132.505Z" fill="#F4A28C"/>
<path d="M553.515 127.013L549.183 130.102C548.928 130.269 548.719 130.503 548.573 130.781C548.428 131.059 548.351 131.372 548.351 131.69C548.351 132.008 548.428 132.321 548.573 132.599C548.719 132.876 548.928 133.11 549.183 133.277L552.951 135.616L553.515 127.013Z" fill="#F4A28C"/>
<path opacity="0.31" d="M561.01 144.39C563.416 143.941 565.66 142.799 567.498 141.086C567.498 141.086 568.768 149.368 559.298 152.157L561.01 144.39Z" fill="#CE8172"/>
<path d="M567.055 132.012C567.055 132.012 568.788 127.292 572.012 128.986C575.236 130.681 572.778 137.568 567.982 136.345L567.055 132.012Z" fill="#F4A28C"/>
<path d="M519.28 388.456L502.456 469.854H512.228L544.971 388.456H519.28Z" fill="#F4A28C"/>
<path d="M574.007 378.566L591.94 469.854H601.773L600.302 377.922L574.007 378.566Z" fill="#F4A28C"/>
<path d="M502.456 469.854C502.456 469.854 497.035 477.17 490.084 476.827C483.132 476.484 482.125 486.911 493.288 485.838C496.765 485.53 500.21 484.898 503.584 483.95C506.701 483.184 509.953 483.302 513.014 484.293C513.611 484.444 514.237 484.395 514.806 484.153C515.376 483.911 515.862 483.488 516.198 482.942C519.361 478.973 511.583 469.854 511.583 469.854H502.456Z" fill="#68E1FD"/>
<path d="M601.068 469.854C601.068 469.854 606.488 477.17 613.439 476.827C620.391 476.484 621.499 486.911 610.236 485.838C606.758 485.53 603.313 484.898 599.939 483.95C596.822 483.184 593.57 483.302 590.509 484.293C589.912 484.444 589.287 484.395 588.717 484.153C588.147 483.911 587.661 483.488 587.326 482.942C584.162 478.973 591.94 469.854 591.94 469.854H601.068Z" fill="#68E1FD"/>
<path d="M624.34 262.69C614.266 279.703 602.821 301.308 597.763 318.343C596.428 322.56 595.569 326.932 595.204 331.365L517.89 327.203C517.89 327.203 518.474 322.011 518.817 313.923C519.442 299.892 519.361 277.086 514.465 257.82C513.256 252.808 511.568 247.941 509.427 243.295C509.427 243.295 483.092 195.28 555.207 170.736H575.115C575.115 170.736 576.465 170.736 578.822 170.736C622.184 172.217 647.371 223.536 624.34 262.69Z" fill="#68E1FD"/>
<path opacity="0.08" d="M604.312 292.877L597.763 318.365L518.817 313.945C519.442 299.914 519.361 277.108 514.465 257.842C535.36 268.741 576.163 286.226 577.855 257.949C580.132 219.889 589.744 198.735 589.744 198.735C625.026 253.422 604.312 292.877 604.312 292.877Z" fill="black"/>
<path d="M518.817 313.923L597.763 318.343L618.84 403.496L504.732 399.162L518.817 313.923Z" fill="#24285B"/>
<path d="M590.388 202.768C590.247 199.016 591.216 195.312 593.159 192.178C595.102 189.044 597.921 186.64 601.218 185.305C604.514 183.97 608.121 183.771 611.529 184.737C614.937 185.704 617.973 187.786 620.21 190.689C631.402 205.025 637.324 223.201 636.873 241.837C636.208 291.654 629.922 345.59 528.972 286.655L534.413 270.865C534.413 270.865 579.205 293.799 597.924 286.355C611.686 280.884 591.819 236.988 590.388 202.768Z" fill="#F4A28C"/>
<path d="M534.413 270.864C534.413 270.864 517.568 262.283 510.415 270.864C503.262 279.446 514.646 286.998 528.973 286.655L534.413 270.864Z" fill="#F4A28C"/>
<path d="M554.824 111.737L550.936 122.078L567.055 128.514C567.055 128.514 567.962 140.014 562.3 142.095C563.587 142.025 564.848 141.684 566.01 141.091C567.173 140.498 568.213 139.665 569.07 138.64C569.752 137.854 570.692 137.38 571.695 137.316C572.698 137.252 573.685 137.603 574.45 138.297L574.652 138.49C579.248 133.673 582.481 127.577 583.981 120.898C585.814 110.75 575.196 109.205 575.196 109.205C575.196 109.205 561.151 98.6709 554.824 111.737Z" fill="#24285B"/>
<path d="M575.236 109.206C575.236 109.206 575.981 99.4438 592.444 101.01C608.906 102.576 592.444 126.262 606.004 148.338C606.004 148.338 581.099 142.739 580.374 118.946L575.236 109.206Z" fill="#24285B"/>
<path d="M574.208 108.497C575.458 107.781 576.876 107.469 578.29 107.598C579.703 107.728 581.051 108.294 582.167 109.226C586.842 112.359 588.897 123.837 581.563 127.784C581.563 127.784 587.648 112.252 574.208 108.497Z" fill="#FFD200"/>
<path d="M596.796 256.683H639.795C639.795 256.683 644.51 189.874 608.926 181.314C573.342 172.753 596.796 256.683 596.796 256.683Z" fill="#68E1FD"/>
<path opacity="0.46" d="M596.796 256.683H639.795C639.795 256.683 644.51 189.874 608.926 181.314C573.342 172.753 596.796 256.683 596.796 256.683Z" fill="white"/>
<path d="M313.734 402.123H280.004V396.115H308.072V366.208H313.734V402.123Z" fill="#B3B3B3"/>
<path d="M93.0562 402.123H126.787V396.115H98.698V366.208H93.0562V402.123Z" fill="#B3B3B3"/>
<path d="M313.734 86.292H280.004V92.2992H308.072V122.207H313.734V86.292Z" fill="#B3B3B3"/>
<path d="M93.0562 86.292H126.787V92.2992H98.698V122.207H93.0562V86.292Z" fill="#B3B3B3"/>
<path opacity="0.46" d="M313.734 424.843H93.0562V434.197H313.734V424.843Z" fill="white"/>
<path opacity="0.46" d="M287.217 448.722H93.0562V458.076H287.217V448.722Z" fill="white"/>
<path d="M262.333 358.334C279.559 358.334 293.524 343.465 293.524 325.123C293.524 306.78 279.559 291.911 262.333 291.911C245.106 291.911 231.141 306.78 231.141 325.123C231.141 343.465 245.106 358.334 262.333 358.334Z" fill="#24285B"/>
<path d="M255.361 345.547L242.768 320.274L251.089 315.576L258.182 329.821L278.876 311.049L284.981 318.665L255.361 345.547Z" fill="#68E1FD"/>
<path opacity="0.58" d="M405.636 451.81C405.636 451.81 386.777 446.339 382.666 427.631C382.666 427.631 411.903 421.345 412.729 453.377L405.636 451.81Z" fill="#68E1FD"/>
<path opacity="0.73" d="M407.873 449.838C407.873 449.838 394.695 427.654 406.281 406.929C406.281 406.929 428.446 421.947 418.633 449.838H407.873Z" fill="#68E1FD"/>
<path d="M411.339 449.837C411.339 449.837 418.311 426.409 439.367 421.946C439.367 421.946 443.397 437.179 425.726 449.837H411.339Z" fill="#68E1FD"/>
<path d="M397.678 449.322L401.486 477.17L425.565 477.277L429.131 449.451L397.678 449.322Z" fill="#24285B"/>
</svg>
