<svg width="296" height="216" viewBox="0 0 296 216" fill="none" xmlns="http://www.w3.org/2000/svg">
<path d="M143.226 213.614L5.74019 130.974C1.36439 128.477 -2.39176 124.369 1.87694 121.684L139.86 40.7712C141.933 39.4641 145.077 38.6083 147.181 39.8531L291.506 125.077C295.882 127.66 296.67 134.88 292.271 137.47L161.372 213.482C158.62 215.108 155.499 215.976 152.316 215.999C149.134 216.022 146 215.2 143.226 213.614Z" fill="#55823D"/>
<path style="mix-blend-mode:multiply" d="M259.131 136.786L222.442 158.243L207.371 147.997L249.936 122.649" fill="url(#paint0_linear)"/>
<path style="mix-blend-mode:multiply" d="M186.303 139.648L118.409 177.094L103.958 167.859L149.66 142.465" fill="url(#paint1_linear)"/>
<path d="M33.3642 92.4937L85.2006 62.2602C85.8014 61.9119 86.4816 61.7299 87.1733 61.7324C87.8649 61.735 88.5438 61.9219 89.1422 62.2747C89.7406 62.6274 90.2375 63.1335 90.5835 63.7425C90.9295 64.3516 91.1124 65.0423 91.114 65.7457V87.4211C91.114 88.1279 90.9308 88.8222 90.583 89.4341C90.2351 90.046 89.7349 90.5539 89.1327 90.9066L37.3039 121.288C36.7028 121.638 36.0218 121.822 35.3291 121.82C34.6363 121.819 33.9561 121.632 33.3566 121.279C32.757 120.926 32.2591 120.419 31.9127 119.809C31.5664 119.199 31.3836 118.507 31.3828 117.802V95.9792C31.3828 95.2724 31.566 94.5781 31.9138 93.9662C32.2617 93.3543 32.7619 92.8464 33.3642 92.4937Z" fill="#68E1FD"/>
<path d="M50.0703 101.934C51.5446 96.9649 50.0641 92.1154 46.7635 91.1026C43.4628 90.0898 39.592 93.2971 38.1177 98.2664C36.6434 103.236 38.1239 108.085 41.4245 109.098C44.7251 110.111 48.596 106.903 50.0703 101.934Z" fill="white"/>
<path d="M55.4193 90.8212L81.9878 75.3232C82.2389 75.1616 82.4186 74.9073 82.4891 74.6137C82.5595 74.3202 82.5153 74.0102 82.3656 73.7492C82.216 73.4881 81.9726 73.2962 81.6867 73.214C81.4007 73.1317 81.0946 73.1655 80.8326 73.3081L54.2718 88.8061C54.0207 88.9677 53.841 89.222 53.7705 89.5156C53.7001 89.8092 53.7443 90.1191 53.894 90.3802C54.0436 90.6412 54.287 90.8331 54.573 90.9153C54.8589 90.9976 55.165 90.9639 55.427 90.8212H55.4193Z" fill="#0071BC"/>
<path d="M55.4193 96.7343L81.9878 81.2363C82.2389 81.0747 82.4186 80.8204 82.4891 80.5268C82.5595 80.2332 82.5153 79.9233 82.3656 79.6622C82.216 79.4012 81.9726 79.2093 81.6867 79.1271C81.4007 79.0448 81.0946 79.0786 80.8326 79.2212L54.2718 94.7192C54.0207 94.8808 53.841 95.1351 53.7705 95.4287C53.7001 95.7223 53.7443 96.0322 53.894 96.2932C54.0436 96.5543 54.287 96.7462 54.573 96.8284C54.8589 96.9107 55.165 96.8769 55.427 96.7343H55.4193Z" fill="#0071BC"/>
<path d="M55.4193 103.106L81.9878 87.6079C82.2389 87.4463 82.4186 87.192 82.4891 86.8984C82.5595 86.6048 82.5153 86.2949 82.3656 86.0338C82.216 85.7728 81.9726 85.5809 81.6867 85.4987C81.4007 85.4164 81.0946 85.4501 80.8326 85.5928L54.2718 101.091C54.0207 101.252 53.841 101.507 53.7705 101.8C53.7001 102.094 53.7443 102.404 53.894 102.665C54.0436 102.926 54.287 103.118 54.573 103.2C54.8589 103.282 55.165 103.249 55.427 103.106H55.4193Z" fill="#0071BC"/>
<path d="M46.9628 98.7171C47.6621 96.36 46.96 94.0598 45.3947 93.5794C43.8293 93.0991 41.9934 94.6205 41.2941 96.9776C40.5947 99.3348 41.2968 101.635 42.8622 102.115C44.4275 102.596 46.2634 101.074 46.9628 98.7171Z" fill="#0071BC"/>
<path d="M49.0159 104.942C49.1001 104.794 48.0826 100.328 45.3669 100.546C40.8457 100.911 39.6217 105.261 39.8665 108.163C40.5524 108.786 41.405 109.189 42.3162 109.319C43.2274 109.449 44.1561 109.301 44.9844 108.894C46.715 108.057 48.1303 106.67 49.0159 104.942Z" fill="#0071BC"/>
<path d="M98.0757 55.149V81.0335C98.0745 81.2953 98.1414 81.5528 98.2695 81.7799C98.3976 82.007 98.5824 82.1956 98.8053 82.3267C99.0281 82.4578 99.2811 82.5266 99.5385 82.5264C99.7959 82.5261 100.049 82.4566 100.271 82.325L134.474 62.2834V35.1152L98.0757 55.149Z" fill="#FFB3A6"/>
<path d="M98.0757 55.149C98.0757 55.149 117.966 58.4789 120.184 57.7943C122.403 57.1096 134.474 35.1074 134.474 35.1074L98.0757 55.149Z" fill="#6DE2FC"/>
<path opacity="0.82" d="M98.0757 55.149C98.0757 55.149 117.966 58.4789 120.184 57.7943C122.403 57.1096 134.474 35.1074 134.474 35.1074L98.0757 55.149Z" fill="#124577"/>
<path d="M17.9727 60.8754V91.9959C17.9723 92.3094 18.053 92.6175 18.2066 92.8893C18.3602 93.1612 18.5813 93.3872 18.8478 93.5447C19.1143 93.7023 19.4168 93.7859 19.7251 93.7872C20.0333 93.7884 20.3365 93.7073 20.6043 93.5519L61.6924 69.4335V36.8037L17.9727 60.8754Z" fill="#FFB3A6"/>
<path d="M17.9727 60.8755C17.9727 60.8755 41.8789 64.8745 44.5258 64.0576C47.1727 63.2407 61.6924 36.8271 61.6924 36.8271L17.9727 60.8755Z" fill="#6DE2FC"/>
<path opacity="0.82" d="M17.9727 60.8755C17.9727 60.8755 41.8789 64.8745 44.5258 64.0576C47.1727 63.2407 61.6924 36.8271 61.6924 36.8271L17.9727 60.8755Z" fill="#124577"/>
<path d="M72.3412 30.0504L122.831 0.625985C123.537 0.21429 124.337 -0.00157629 125.15 8.66537e-06C125.964 0.00159362 126.763 0.220574 127.467 0.635016C128.171 1.04946 128.756 1.64481 129.163 2.36145C129.57 3.07809 129.784 3.89085 129.785 4.71833V24.7755C129.788 25.6022 129.578 26.4153 129.175 27.1335C128.772 27.8516 128.191 28.4497 127.49 28.8678L77.0001 58.4323C76.2941 58.8459 75.4935 59.0634 74.6787 59.0628C73.864 59.0622 73.0637 58.8435 72.3583 58.4289C71.6529 58.0142 71.0672 57.4181 70.66 56.7003C70.2529 55.9826 70.0385 55.1686 70.0386 54.34V34.1116C70.0415 33.2894 70.2555 32.4822 70.6594 31.7699C71.0633 31.0576 71.643 30.4649 72.3412 30.0504Z" fill="#68E1FD"/>
<path d="M90.2539 41.0489C91.7282 36.0796 90.2477 31.2301 86.9471 30.2173C83.6464 29.2045 79.7756 32.4119 78.3013 37.3812C76.827 42.3505 78.3075 47.2 81.6081 48.2128C84.9087 49.2256 88.7796 46.0182 90.2539 41.0489Z" fill="white"/>
<path d="M96.0256 27.7089L122.594 12.2109C122.845 12.0493 123.025 11.795 123.095 11.5014C123.166 11.2078 123.122 10.8979 122.972 10.6369C122.822 10.3758 122.579 10.1839 122.293 10.1017C122.007 10.0194 121.701 10.0532 121.439 10.1958L94.8705 25.6938C94.6194 25.8554 94.4396 26.1097 94.3692 26.4033C94.2987 26.6969 94.3429 27.0068 94.4926 27.2679C94.6423 27.5289 94.8857 27.7208 95.1716 27.803C95.4575 27.8853 95.7637 27.8515 96.0256 27.7089Z" fill="#0071BC"/>
<path d="M96.0254 33.6444L122.594 18.1464C122.845 17.9849 123.025 17.7305 123.095 17.437C123.166 17.1434 123.121 16.8335 122.972 16.5724C122.822 16.3113 122.579 16.1195 122.293 16.0372C122.007 15.955 121.701 15.9887 121.439 16.1314L94.8702 31.6138C94.6055 31.7696 94.4124 32.026 94.3335 32.3265C94.2546 32.6271 94.2963 32.9472 94.4495 33.2165C94.6027 33.4858 94.8547 33.6822 95.1503 33.7624C95.4458 33.8427 95.7606 33.8002 96.0254 33.6444Z" fill="#0071BC"/>
<path d="M96.0256 39.9935L122.594 24.4955C122.845 24.334 123.025 24.0797 123.095 23.7861C123.166 23.4925 123.122 23.1826 122.972 22.9215C122.822 22.6605 122.579 22.4686 122.293 22.3864C122.007 22.3041 121.701 22.3378 121.439 22.4805L94.8705 37.9785C94.6194 38.1401 94.4396 38.3944 94.3692 38.6879C94.2987 38.9815 94.3429 39.2915 94.4926 39.5525C94.6423 39.8136 94.8857 40.0054 95.1716 40.0877C95.4575 40.1699 95.7637 40.1362 96.0256 39.9935Z" fill="#0071BC"/>
<path d="M86.9789 37.7449C87.6782 35.3878 86.9761 33.0876 85.4108 32.6073C83.8454 32.1269 82.0095 33.6483 81.3102 36.0055C80.6109 38.3626 81.3129 40.6628 82.8783 41.1432C84.4437 41.6235 86.2796 40.1021 86.9789 37.7449Z" fill="#0071BC"/>
<path d="M89.0257 43.9689C89.1098 43.8211 88.0924 39.3553 85.3767 39.5731C80.8555 39.9388 79.6315 44.2879 79.8763 47.1899C80.5621 47.8138 81.4147 48.2164 82.3259 48.3466C83.2371 48.4768 84.1658 48.3287 84.9942 47.9212C86.7248 47.0846 88.1401 45.6971 89.0257 43.9689Z" fill="#0071BC"/>
<path d="M74.6142 33.4998C75.4746 30.5996 74.4015 27.7053 72.2172 27.035C70.033 26.3648 67.5648 28.1724 66.7044 31.0726C65.844 33.9727 66.9172 36.8671 69.1014 37.5373C71.2856 38.2076 73.7538 36.3999 74.6142 33.4998Z" fill="#EB4956"/>
<path d="M138.422 43.9846C136.578 42.9809 135.607 41.0593 133.916 39.8845L133.809 39.7989L133.671 39.7522C133.46 39.7081 133.241 39.7258 133.039 39.8034C132.837 39.8809 132.662 40.015 132.532 40.1901C132.402 40.3653 132.324 40.5743 132.306 40.7928C132.288 41.0114 132.332 41.2306 132.432 41.4249C132.894 42.2895 133.607 42.9878 134.475 43.4244C134.545 43.5521 134.64 43.6637 134.754 43.7521C134.869 43.8405 135 43.9037 135.14 43.9379C136.184 44.2156 137.206 44.5692 138.2 44.996C138.459 45.1364 138.761 45.1719 139.045 45.0954C139.329 45.0189 139.573 44.8361 139.73 44.5836C139.873 44.3149 139.914 44.0019 139.845 43.7045C139.685 43.924 139.451 44.0746 139.187 44.1265C138.924 44.1784 138.651 44.1277 138.422 43.9846Z" fill="#FFC4B0"/>
<path d="M138.544 47.3689C137.886 45.8128 137.312 44.2024 136.7 42.623C136.31 42.2184 135.935 41.7905 135.553 41.3782C135.466 41.3674 135.379 41.3674 135.293 41.3782C135.128 41.3795 134.965 41.4205 134.818 41.4978C134.672 41.5751 134.545 41.6866 134.449 41.8231C134.353 41.9597 134.29 42.1174 134.265 42.2834C134.24 42.4494 134.254 42.6191 134.306 42.7786L134.444 43.152C134.339 43.4463 134.353 43.7705 134.482 44.0545C134.951 45.0919 135.425 46.1111 135.905 47.1121C136.064 47.6158 136.29 48.0949 136.578 48.5359L136.869 49.1505C137.504 50.4809 139.447 49.3139 138.819 47.9913L138.544 47.3689Z" fill="#FFC4B0"/>
<path d="M151.817 25.46L151.618 25.7789C151.34 26.3695 151.02 26.9389 150.662 27.4828C150.305 28.8469 149.935 30.2084 149.552 31.5674C148.787 34.2126 148.849 37.2468 147.38 39.6431C145.613 42.5296 141.765 42.0472 139.072 40.9657C138.376 40.6857 137.657 40.3278 136.93 39.9621C136.655 43.8522 136.586 48.0145 138.093 51.6323C141.283 52.7788 144.656 53.3066 148.038 53.1883C151.939 53.0483 157.218 51.8424 158.71 47.6333L151.817 25.46Z" fill="#FFB3A6"/>
<path d="M151.427 32.7889C150.777 38.056 151.427 43.6811 149.269 48.6292C148.562 50.2139 147.626 51.6824 146.493 52.9861L146.301 53.2039C150.891 53.1028 152.681 52.4259 152.681 52.4259L151.916 29.2256C151.771 29.6457 151.48 30.6182 151.098 31.9564C151.22 32.0529 151.316 32.1809 151.373 32.3272C151.431 32.4736 151.45 32.6329 151.427 32.7889Z" fill="#42210B"/>
<path d="M125.004 40.5614L132.409 51.2046L137.833 51.6092L130.466 40.3047L125.004 40.5614Z" fill="#2D2D2D"/>
<path d="M127.115 38.6162L132.241 39.1686L140.296 50.6054L137.833 51.609L131.277 42.3507L125.004 40.5612L127.115 38.6162Z" fill="#606060"/>
<path d="M132.692 48.4274H132.302C132.43 48.2579 132.51 48.0556 132.533 47.8428C132.555 47.6299 132.519 47.4149 132.429 47.2216C132.339 47.0282 132.198 46.8641 132.021 46.7473C131.845 46.6306 131.64 46.5658 131.43 46.5601H130.535C130.711 46.3773 130.824 46.1411 130.857 45.8872C130.891 45.6332 130.842 45.3752 130.718 45.1519C130.236 44.3739 128.27 44.3272 127.834 45.1519C127.69 45.4142 127.652 45.7229 127.728 46.0132C127.804 46.3034 127.987 46.5525 128.24 46.7079L128.507 46.8247C128.344 46.9842 128.231 47.1891 128.183 47.4137C128.134 47.6384 128.152 47.8726 128.233 48.0871C128.315 48.3016 128.457 48.4867 128.642 48.6192C128.827 48.7517 129.046 48.8257 129.272 48.8319H129.433C129.313 49.0024 129.242 49.2033 129.227 49.4125C129.212 49.6216 129.255 49.8308 129.35 50.0169C129.445 50.203 129.589 50.3587 129.765 50.4667C129.942 50.5748 130.145 50.631 130.351 50.6291C131.126 50.7083 131.906 50.7291 132.684 50.6914C132.985 50.6894 133.274 50.5679 133.488 50.3529C133.702 50.1378 133.826 49.8461 133.832 49.5399C133.82 49.2406 133.695 48.9576 133.482 48.7502C133.27 48.5428 132.986 48.4271 132.692 48.4274Z" fill="#FFC4B0"/>
<path d="M145.268 132.748C145.612 135.775 145.964 138.832 145.521 141.859C145.421 142.512 145.337 143.22 145.207 143.936L152.788 142.637V132.748H145.268Z" fill="#FFC4B0"/>
<path d="M145.307 137.899C144.825 140.622 143.379 144.457 141.987 145.78C140.25 147.421 130.466 152.696 134.551 155.489C137.611 157.559 153.875 149.265 154.296 147.032C154.602 145.406 153.737 140.334 153.248 137.696C150.914 139.19 147.9 138.933 145.307 137.899Z" fill="#42210B"/>
<path d="M155.175 133.137C155.642 124.369 156.889 108.287 157.072 107.463C157.332 106.342 161.578 89.5684 161.578 89.5684C160.385 83.9356 159.352 78.2639 158.633 72.5532C157.332 72.4443 160.247 57.1486 158.977 56.8841C156.346 56.3239 153.913 52.6206 151.465 51.438C148.963 65.8468 140.854 108.233 138.988 130.904C140.801 134.926 149.292 135.564 155.175 133.137Z" fill="#06577A"/>
<path d="M179.732 119.826C181.644 121.973 183.771 126.913 185.087 129.395C185.378 129.932 185.699 130.5 185.99 131.091L190.932 126.968L185.967 115.687L179.732 119.826Z" fill="#FFC4B0"/>
<path d="M189.264 122.72C187.871 124.789 185.622 126.089 183.381 125.7C183.603 127.411 184.322 130.663 183.572 131.83C182.463 133.55 174.499 140.63 178.691 142.365C181.805 143.648 192.859 133.729 192.691 131.721C192.568 130.298 190.228 124.953 189.264 122.72Z" fill="#42210B"/>
<path d="M176.297 126.228C176.345 126.301 176.416 126.354 176.498 126.38C176.581 126.405 176.669 126.401 176.749 126.368C179.348 125.341 181.818 124.004 184.108 122.385C186.403 120.572 187.413 118.612 189.256 116.161L188.308 114.558C183.97 105.642 175.394 75.7977 174.981 73.7437C174.492 71.3163 172.51 49.5709 172.51 49.5709L152.957 45.9531C152.957 45.9531 153.638 64.9366 155.183 81.7962C155.926 84.7505 156.833 87.6597 157.899 90.5099C162.275 102.266 167.897 116.285 176.32 126.236L176.297 126.228Z" fill="#06577A"/>
<path d="M173.145 55.3668C172.969 44.2957 172.036 35.1385 170.384 31.474C168.532 27.3894 161.8 24.2307 159.138 23.1182C158.373 23.1182 157.509 23.1804 156.698 23.2815L155.68 23.4838L154.915 23.6161C154.547 23.7136 154.184 23.8331 153.829 23.974C153.319 24.2541 152.829 24.5549 152.36 24.8765C152.281 24.9282 152.187 24.9527 152.092 24.9465C151.667 25.2782 151.288 25.6683 150.968 26.1057C150.936 26.1502 150.897 26.1895 150.853 26.2224C150.585 27.2828 150.441 28.3719 150.425 29.4667C150.323 32.6314 150.376 35.7993 150.585 38.9585C150.823 43.1442 151.205 47.3143 151.45 51.5L151.878 53.5073C154.77 55.8414 159.115 57.0862 161.77 57.5919C166.146 57.0784 169.137 57.1406 173.145 55.3668Z" fill="#FFB3A6"/>
<path d="M155.772 26.2695C156.347 26.7494 157.031 27.0757 157.761 27.2187C160.056 27.7167 161.869 25.406 163.047 23.7255C164.514 21.7731 165.531 19.5104 166.023 17.1046C166.086 16.7104 166.086 16.3084 166.023 15.9142C165.549 13.0433 156.208 9.48783 154.846 14.8016C154.074 17.9448 152.957 23.8422 155.772 26.2695Z" fill="#FFC4B0"/>
<path d="M164.432 19.8585C164.103 19.7878 163.764 19.7887 163.435 19.8611C163.107 19.9335 162.798 20.0758 162.527 20.2787C161.939 20.6804 161.507 21.2771 161.303 21.967C161.249 22.1031 161.241 22.254 161.281 22.3951C161.322 22.5363 161.407 22.6596 161.525 22.745C161.569 22.8532 161.634 22.9511 161.716 23.0327C161.799 23.1143 161.897 23.1779 162.004 23.2194C162.112 23.261 162.227 23.2797 162.342 23.2744C162.457 23.269 162.569 23.2398 162.673 23.1884C163.383 22.8633 164.032 22.4159 164.593 21.8658C165.128 21.2901 165.358 20.1853 164.432 19.8585Z" fill="#FFC4B0"/>
<path d="M169.022 13.7897C169.028 13.1918 168.907 12.5996 168.668 12.0533C168.429 11.5069 168.078 11.0192 167.637 10.6232C167.151 10.1786 166.576 9.84681 165.951 9.65068C165.326 9.45455 164.667 9.39882 164.019 9.48734C163.669 8.60476 163.032 7.87132 162.213 7.41005C161.461 7.03159 160.613 6.89298 159.782 7.01236C158.951 7.13174 158.175 7.50355 157.554 8.07914C156.207 7.71366 154.778 7.82336 153.5 8.39034C152.834 8.72711 152.253 9.21523 151.802 9.81692C151.351 10.4186 151.042 11.1178 150.899 11.8603C150.844 12.0766 150.814 12.2984 150.807 12.5216C150.703 12.9012 150.66 13.2951 150.677 13.6886C150.769 16.4428 152.972 17.4464 154.319 17.8121C154.319 16.3338 154.953 13.5719 156.499 14.5678C156.592 14.5841 156.681 14.6213 156.759 14.6767C157.715 15.338 156.636 16.6606 158.113 17.0885C159.589 17.5164 160.607 16.5283 161.762 18.0844C162.917 19.6404 159.689 20.7218 162.527 23.7327C162.518 23.9167 162.518 24.1011 162.527 24.2851C162.527 24.0673 164.003 23.087 164.218 22.9003C164.822 22.3712 165.419 21.8188 165.977 21.2353C166.989 20.3035 167.843 19.2071 168.502 17.991C169.001 16.6527 169.18 15.2123 169.022 13.7897Z" fill="#333333"/>
<path d="M163.851 21.7178C164.141 20.792 163.499 20.1618 162.688 20.4185C162.089 20.6667 161.561 21.0627 161.151 21.5708C160.741 22.0788 160.462 22.6829 160.339 23.3283C160.305 23.4613 160.301 23.6004 160.328 23.7351C160.354 23.8699 160.411 23.9968 160.492 24.1063C160.521 24.1787 160.56 24.2467 160.607 24.3086C160.679 24.4106 160.772 24.4958 160.879 24.5586C160.986 24.6214 161.105 24.6603 161.228 24.6728C161.351 24.6853 161.475 24.6711 161.592 24.6311C161.709 24.5911 161.817 24.5263 161.907 24.4408C162.837 23.78 163.521 22.8211 163.851 21.7178Z" fill="#FFC4B0"/>
<path d="M155.803 19.1193C155.512 19.0104 152.812 17.5088 152.812 17.5088C152.812 17.5088 152.268 20.3797 153.676 21.2821C155.084 22.1846 155.803 19.1193 155.803 19.1193Z" stroke="#333333" stroke-width="0.75" stroke-miterlimit="10"/>
<path d="M157.233 19.835L160.4 21.5232C160.4 21.5232 159.926 24.3941 157.845 23.5772C155.764 22.7603 157.233 19.835 157.233 19.835Z" stroke="#333333" stroke-width="0.75" stroke-miterlimit="10"/>
<path d="M162.137 20.209L160.339 21.3768C160.11 21.5247 160.339 21.8594 160.592 21.7115L162.389 20.5438C162.649 20.4192 162.397 20.0611 162.137 20.209Z" fill="#333333"/>
<path d="M155.504 23.196C155.244 23.1338 154.885 22.9938 154.938 22.6748C155.015 22.4831 155.121 22.3046 155.252 22.1457C155.458 21.8112 155.688 21.4922 155.925 21.1732C155.959 21.1288 155.973 21.0728 155.966 21.0173C155.959 20.9619 155.931 20.9116 155.887 20.8776C155.843 20.8435 155.788 20.8285 155.734 20.8358C155.679 20.8431 155.63 20.8721 155.596 20.9165C155.359 21.2355 155.137 21.5544 154.923 21.889C154.722 22.1443 154.574 22.4379 154.487 22.7526C154.426 23.2505 155.076 23.5306 155.458 23.6473C155.711 23.6784 155.764 23.2583 155.504 23.196Z" fill="#333333"/>
<path d="M157.386 19.6797C156.81 19.4559 156.248 19.1959 155.703 18.9012C155.466 18.7767 155.305 19.1659 155.542 19.2905C156.087 19.5851 156.649 19.8451 157.225 20.0689C157.478 20.1701 157.638 19.7809 157.386 19.6797Z" fill="#333333"/>
<path d="M159.964 95.9947C159.964 95.9947 156.69 84.2856 154.862 78.2949L156.499 113.78C156.499 113.78 158.35 100.608 159.964 95.9947Z" fill="#42210B"/>
<path d="M136.731 22.9006C136.731 22.9006 152.283 22.7917 153.247 23.3129C154.211 23.8342 154.517 25.5225 154.012 27.8332C153.507 30.1439 145.597 39.0832 145.597 39.0832" fill="#3BD2E2"/>
<path d="M131.904 27.6929C131.958 27.5295 133.947 20.294 140.931 23.8029C147.243 26.9927 146.975 35.3952 146.424 37.4181C145.973 39.0675 144.175 41.2459 140.885 41.8839" fill="#CC6C6D"/>
<path d="M141.625 41.6876C145.055 40.4042 146.399 35.392 144.626 30.4924C142.853 25.5928 138.636 22.6614 135.206 23.9448C131.777 25.2282 130.433 30.2404 132.206 35.14C133.978 40.0396 138.195 42.971 141.625 41.6876Z" fill="#F9847F"/>
<path d="M145.307 33.6447L138.192 35.1073L136.892 31.7074L143.463 28.0508C144.405 29.7866 145.03 31.682 145.307 33.6447Z" fill="white"/>
<path d="M138.381 35.0643C139.116 34.736 139.386 33.7141 138.983 32.7817C138.58 31.8493 137.658 31.3596 136.923 31.6878C136.188 32.0161 135.919 33.0381 136.321 33.9705C136.724 34.9029 137.646 35.3926 138.381 35.0643Z" fill="#F7D600"/>
<path d="M153.194 45.5096L154.387 23.9743C154.396 23.8784 154.385 23.7817 154.356 23.6902C154.326 23.5986 154.279 23.5139 154.217 23.4413C154.155 23.3687 154.079 23.3095 153.994 23.2674C153.909 23.2253 153.816 23.2011 153.722 23.1962L152.062 23.1029C151.967 23.0944 151.872 23.1053 151.782 23.1351C151.692 23.1648 151.609 23.2127 151.538 23.2759C151.466 23.3391 151.408 23.4163 151.367 23.5028C151.325 23.5894 151.301 23.6836 151.297 23.7798L150.073 45.8364C150.057 46.1088 150.118 46.3801 150.249 46.6183C150.38 46.8565 150.575 47.0517 150.812 47.1809C151.048 47.3101 151.316 47.3679 151.583 47.3475C151.851 47.327 152.107 47.2293 152.322 47.0657C152.572 46.8889 152.78 46.6574 152.931 46.3881C153.082 46.1189 153.172 45.8187 153.194 45.5096Z" fill="#3BD2E2"/>
<path d="M243.762 114.418C243.762 114.418 242.148 133.869 252.346 137.292C262.543 140.715 267.646 130.788 267.248 113.656" fill="#68E1FD"/>
<path d="M255.715 120.955C262.201 120.746 267.362 117.484 267.243 113.671C267.124 109.857 261.769 106.935 255.283 107.145C248.797 107.354 243.635 110.616 243.754 114.43C243.873 118.243 249.228 121.165 255.715 120.955Z" fill="#F2696A"/>
<path d="M258.037 98.5857C258.037 98.5857 253.218 91.9648 255.077 87.2189C255.077 87.2189 256.607 84.1614 258.978 83.6012C258.978 83.6012 258.978 90.0276 261.273 89.1329C263.568 88.2381 261.067 82.4186 261.067 82.4186C261.067 82.4186 263.431 78.9409 266.131 78.9564C268.832 78.972 266.322 84.9549 268.166 83.9202C270.01 82.8854 268.097 77.9217 270.193 77.2604C272.114 76.7467 274.067 76.3646 276.038 76.1167C276.038 76.1167 278.218 81.9051 276.244 82.8076C274.271 83.7101 271.348 84.0913 272.794 85.3362C274.24 86.581 278.195 84.9705 278.195 84.9705C278.195 84.9705 278.547 88.2537 277.231 89.7241C275.916 91.1946 267.829 88.3004 269.329 91.0857C270.828 93.871 276.069 92.2838 276.069 92.2838C276.069 92.2838 273.49 96.2984 270.377 98.1967C267.263 100.095 258.037 98.5857 258.037 98.5857Z" fill="#8CCC00"/>
<path d="M259.644 115.492C259.644 115.492 256.209 112.255 256.775 109.361C256.775 109.361 257.341 107.455 258.611 106.887C258.611 106.887 259.269 110.536 260.493 109.781C261.717 109.026 259.667 105.992 259.667 105.992C259.667 105.992 260.638 103.759 262.183 103.479C263.729 103.199 262.948 106.863 263.859 106.078C264.769 105.292 263.193 102.678 264.31 102.079C265.347 101.579 266.415 101.15 267.508 100.795C267.508 100.795 269.352 103.845 268.326 104.568C267.301 105.292 265.68 105.829 266.636 106.373C267.592 106.918 269.696 105.595 269.696 105.595C269.696 105.595 270.239 107.424 269.65 108.396C269.061 109.369 264.165 108.606 265.305 110.03C266.445 111.454 269.26 109.975 269.26 109.975C268.643 111.457 267.755 112.806 266.643 113.951C265.037 115.336 259.644 115.492 259.644 115.492Z" fill="#8CCC00"/>
<path d="M247.174 108.661C247.174 108.661 239.096 109.244 236.158 105.09C236.158 105.09 234.46 102.102 235.255 99.7992C235.255 99.7992 240.565 103.277 241.069 100.803C241.574 98.3288 235.386 97.3718 235.386 97.3718C235.386 97.3718 233.771 93.4818 235.24 91.1477C236.709 88.8137 240.32 94.2131 240.45 92.0658C240.58 89.9185 235.439 88.907 236.013 86.7442C236.618 84.8216 237.349 82.9423 238.201 81.1191C238.201 81.1191 244.175 82.3562 243.862 84.5346C243.548 86.7131 242.293 89.4283 244.107 88.8526C245.92 88.2769 246.7 84.0211 246.7 84.0211C246.7 84.0211 249.615 85.4838 250.127 87.3977C250.64 89.3116 243.892 94.6955 247.006 94.9055C250.119 95.1156 251.596 89.7629 251.596 89.7629C251.596 89.7629 253.539 94.1353 253.44 97.8231C253.34 101.511 247.174 108.661 247.174 108.661Z" fill="#8CCC00"/>
<path d="M274.355 78.7699C273.518 79.5375 272.679 80.3156 271.838 81.1039C271.899 80.1703 271.975 79.2367 272.09 78.3031C272.151 77.813 271.409 77.6262 271.325 78.1164C271.172 79.3612 271.065 80.6112 271.004 81.8664C268.801 83.9593 266.613 86.1532 264.593 88.4639C264.363 86.8934 264.266 85.3056 264.302 83.7181C264.302 83.2201 263.537 83.2435 263.537 83.7181C263.499 85.5422 263.632 87.3659 263.935 89.1642C262.643 90.6739 261.435 92.2557 260.317 93.9022C258.944 92.0982 257.983 90.007 257.502 87.7793C257.394 87.2891 256.668 87.5225 256.737 88.0127C257.257 90.3845 258.304 92.6039 259.797 94.5013C259.819 94.528 259.845 94.5515 259.873 94.5713C256.66 99.5273 254.518 105.036 254.518 111.345C254.518 111.843 255.283 111.82 255.283 111.345C255.283 105.277 257.333 99.9474 260.416 95.1548C263.529 95.8868 266.738 96.0996 269.918 95.785C270.407 95.7383 270.384 94.9603 269.918 95.007C266.899 95.3058 263.852 95.1194 260.891 94.4546C262.441 92.1744 264.154 90.0135 266.016 87.9894H266.085C267.875 88.0905 269.665 88.1994 271.44 88.2072C272.568 88.3363 273.709 88.1647 274.752 87.7093C275.188 87.4681 274.752 86.8146 274.347 87.048C273.131 87.717 271.394 87.4447 270.071 87.4058C268.938 87.4058 267.776 87.3125 266.666 87.2502C269.306 84.4183 272.144 81.8042 274.89 79.2445C275.28 78.9644 274.722 78.4354 274.355 78.7699Z" fill="#06577A"/>
<path d="M251.137 94.6644C251.149 94.6133 251.151 94.5604 251.143 94.5085C251.135 94.4566 251.117 94.4068 251.09 94.362C251.063 94.3172 251.028 94.2783 250.986 94.2474C250.944 94.2165 250.897 94.1943 250.846 94.1821C250.796 94.1698 250.744 94.1677 250.693 94.176C250.642 94.1842 250.593 94.2025 250.549 94.23C250.505 94.2574 250.467 94.2935 250.436 94.336C250.406 94.3785 250.384 94.4266 250.372 94.4777C249.635 97.3726 247.991 99.9451 245.69 101.807C244.747 99.3896 243.877 96.944 243.082 94.4699C244.868 92.5404 246.317 90.3143 247.366 87.888C247.564 87.4289 246.891 87.0555 246.692 87.5145C245.728 89.7445 244.415 91.8016 242.806 93.6063C241.919 90.7744 241.123 87.9035 240.435 85.0093C240.32 84.5192 239.586 84.7526 239.67 85.2427C240.608 89.2106 241.735 93.1162 243.051 96.9596C241.601 96.7192 240.185 96.2985 238.836 95.707C238.384 95.5125 238.017 96.1893 238.469 96.3916C240.023 97.0829 241.662 97.5566 243.342 97.7998C244.229 100.336 245.208 102.834 246.256 105.3C243.967 105.3 241.697 104.867 239.563 104.024C239.111 103.845 238.736 104.53 239.195 104.709C241.546 105.646 244.053 106.111 246.578 106.078C247.904 109.154 249.349 112.177 250.915 115.149C251.152 115.593 251.795 115.149 251.565 114.737C249.472 110.79 247.594 106.728 245.943 102.569C248.491 100.596 250.319 97.8138 251.137 94.6644Z" fill="#06577A"/>
<path d="M265.297 104.273L263.308 107.93C263.039 107.588 262.803 107.221 262.604 106.833C262.375 106.389 261.732 106.833 261.954 107.245C262.21 107.741 262.521 108.205 262.88 108.63L260.722 112.59C260.457 112.352 260.281 112.027 260.225 111.672C260.148 111.182 259.383 111.205 259.46 111.672C259.551 112.286 259.868 112.842 260.347 113.228L257.647 118.184C257.598 118.275 257.587 118.381 257.616 118.481C257.644 118.58 257.711 118.663 257.8 118.713C257.889 118.762 257.994 118.774 258.092 118.745C258.189 118.715 258.271 118.648 258.32 118.557L261.877 112.022C262.509 112.013 263.134 111.897 263.729 111.68C264.188 111.508 263.966 110.762 263.499 110.902C263.118 111.037 262.723 111.126 262.321 111.166L265.924 104.545C265.92 104.474 265.895 104.405 265.855 104.346C265.814 104.287 265.758 104.242 265.693 104.213C265.628 104.185 265.556 104.176 265.487 104.186C265.417 104.197 265.351 104.227 265.297 104.273Z" fill="#06577A"/>
<path d="M150.57 46.8711C152.301 47.0753 154.044 47.1584 155.787 47.1201C157.744 47.4872 159.726 47.7005 161.716 47.7581C162.189 45.6275 162.544 43.4716 162.779 41.3006C161.731 41.0983 160.683 40.8882 159.643 40.647C158.918 40.258 158.184 39.895 157.439 39.5578C157.355 39.403 157.234 39.272 157.088 39.1766C155.29 37.8224 153.277 36.7933 151.136 36.1346C150.073 35.8623 149.277 37.5116 150.195 38.1574C150.843 38.6138 151.501 39.0521 152.169 39.4722C151.189 39.2751 150.208 39.1066 149.223 38.9665C148.933 38.9213 148.636 38.9891 148.392 39.1563C148.148 39.3236 147.975 39.578 147.908 39.869C147.834 40.1454 147.846 40.4378 147.94 40.7075C148.034 40.9771 148.207 41.2111 148.435 41.3784C148.164 41.5047 147.941 41.7193 147.803 41.9883C147.665 42.2573 147.618 42.5655 147.67 42.8644C147.74 43.1138 147.858 43.3467 148.017 43.5496C148.176 43.7526 148.373 43.9216 148.596 44.047C148.454 44.2358 148.358 44.4562 148.315 44.6901C148.272 44.924 148.285 45.1648 148.351 45.3929C148.642 46.4432 149.636 46.7311 150.57 46.8711Z" fill="#FFC4B0"/>
<path d="M168.402 28.7822C170.804 30.7584 174.14 37.0603 175.448 41.9073C176.756 46.7543 177.582 56.1138 172.005 56.6895C166.429 57.2653 161.295 49.6407 161.295 49.6407L162.825 41.246L168.402 28.7822Z" fill="#FFB3A6"/>
<path d="M162.779 41.2769L169.511 41.9071L167.017 37.1768L167.499 40.3588L162.779 41.2769Z" fill="#42210B"/>
<path d="M161.709 47.7266L161.272 49.6638C161.272 49.6638 162.955 56.1447 169.726 56.5259C169.726 56.5337 162.527 53.445 161.709 47.7266Z" fill="#42210B"/>
<defs>
<linearGradient id="paint0_linear" x1="243.716" y1="134.716" x2="219.025" y2="152.231" gradientUnits="userSpaceOnUse">
<stop stop-color="#D4A397"/>
<stop offset="1" stop-color="white"/>
</linearGradient>
<linearGradient id="paint1_linear" x1="18160.5" y1="7484.25" x2="16241" y2="10530.4" gradientUnits="userSpaceOnUse">
<stop stop-color="#D4A397"/>
<stop offset="1" stop-color="white"/>
</linearGradient>
</defs>
</svg>
