<svg width="193" height="216" viewBox="0 0 193 216" fill="none" xmlns="http://www.w3.org/2000/svg">
<path d="M151.667 17.3107L137.52 21.1159C136.676 21.3429 136.171 22.2282 136.393 23.0933C136.614 23.9585 137.477 24.4758 138.321 24.2489L152.469 20.4437C153.313 20.2167 153.817 19.3314 153.596 18.4663C153.375 17.6011 152.511 17.0838 151.667 17.3107Z" fill="#FFD200"/>
<path opacity="0.3" d="M84.2474 216C130.776 216 168.495 210.472 168.495 203.652C168.495 196.833 130.776 191.305 84.2474 191.305C37.7188 191.305 0 196.833 0 203.652C0 210.472 37.7188 216 84.2474 216Z" fill="#E6E6E6"/>
<path d="M85.7685 189.951C85.7685 189.951 94.0762 188.494 95.4469 197.149C95.4739 197.328 95.4653 197.512 95.4215 197.689C95.3776 197.865 95.2995 198.031 95.1919 198.175C95.0842 198.32 94.9491 198.441 94.7948 198.531C94.6404 198.621 94.4699 198.679 94.2935 198.699C90.5967 199.149 86.8578 199.085 83.1775 198.511C76.7253 197.431 80.4696 189.231 85.7685 189.951Z" fill="#EFEFEF"/>
<path d="M39.2656 199.608C39.2656 199.608 41.1461 185.984 50.9667 182.334L72.2709 178.486C72.2709 178.486 87.4571 179.866 86.847 198.82C71.163 202.025 55.0425 202.292 39.2656 199.608Z" fill="#E6E6E6"/>
<path d="M127.391 123.947C127.391 123.947 114.57 120.52 115.848 127.812V176.936H120.395C121.173 176.936 121.919 176.62 122.47 176.055C123.02 175.491 123.329 174.726 123.329 173.929V162.112C124.708 161.924 126.229 161.101 126.63 158.505C127.407 153.501 126.63 131.128 126.63 131.128C126.63 131.128 136.392 129.02 142.042 132.182V125.593L127.391 123.947Z" fill="#FFD200"/>
<path d="M162.926 -4.78574e-07C162.926 -4.78574e-07 137.434 -4.40917e-05 128.57 25.2092C128.57 25.2092 151.103 39.0991 173.819 25.2092L162.926 -4.78574e-07Z" fill="#FFD200"/>
<path d="M53.3234 45.3709C53.3234 45.3709 33.2645 85.1212 57.9453 90.5195C82.6261 95.9178 89.5799 63.7251 89.5799 63.7251C89.5799 63.7251 85.66 48.3014 79.1158 48.6527C72.5716 49.004 66.5289 61.1459 62.9183 69.9717C62.6709 70.5783 62.2355 71.0844 61.6794 71.4117C61.1233 71.739 60.4775 71.8694 59.8418 71.7825C59.2062 71.6957 58.6162 71.3966 58.1631 70.9314C57.71 70.4662 57.419 69.8609 57.3352 69.2091C56.4994 62.9625 54.3849 54.6423 58.3966 47.1532C58.3966 47.1532 63.9797 43.6657 62.0574 38.9443C60.1351 34.223 53.3234 38.2674 53.3234 45.3709Z" fill="#F4A28C"/>
<path opacity="0.58" d="M143.513 191.896C143.513 191.896 137.32 190.183 135.991 184.253C135.991 184.253 145.586 182.265 145.862 192.419L143.513 191.896Z" fill="#68E1FD"/>
<path opacity="0.73" d="M144.265 191.305C144.265 191.305 139.944 184.287 143.747 177.732C143.747 177.732 151.044 182.488 147.801 191.322L144.265 191.305Z" fill="#68E1FD"/>
<path d="M145.385 191.305C145.385 191.305 147.667 183.901 154.579 182.496C154.579 182.496 155.874 187.312 150.107 191.33L145.385 191.305Z" fill="#68E1FD"/>
<path d="M140.889 191.143L142.151 199.951L150.057 199.986L151.219 191.185L140.889 191.143Z" fill="#24285B"/>
<path d="M47.5479 58.0271L56.7917 59.9379L58.4632 47.1877C58.4632 47.1877 63.4779 44.4799 63.3693 41.2495C63.3852 40.5693 63.2451 39.8948 62.9603 39.2803C62.6754 38.6658 62.2537 38.1285 61.7292 37.7116C61.2047 37.2948 60.592 37.01 59.9406 36.8804C59.2891 36.7507 58.617 36.7798 57.9785 36.9652C54.6353 37.9163 53.2981 43.3746 52.2032 47.2048C51.1083 51.035 47.5479 58.0271 47.5479 58.0271Z" fill="#24285B"/>
<path d="M136.84 21.3088L36.756 48.2277C35.9121 48.4547 35.4075 49.34 35.6289 50.2052C35.8503 51.0703 36.7138 51.5876 37.5577 51.3607L137.641 24.4418C138.485 24.2148 138.99 23.3295 138.768 22.4644C138.547 21.5992 137.683 21.0819 136.84 21.3088Z" fill="#FFD200"/>
<path d="M67.2475 64.6677C67.1785 62.4265 67.5438 60.1935 68.3221 58.098C69.1005 56.0024 70.2765 54.086 71.7821 52.4595C73.2877 50.833 75.093 49.5289 77.0935 48.6225C79.094 47.716 81.25 47.2254 83.4367 47.1789C94.8619 46.939 112.689 41.2836 119.451 51.6947C129.781 67.701 113.065 112.738 113.065 112.738H82.183C82.183 112.738 67.8409 82.5335 67.2475 64.6677Z" fill="#68E1FD"/>
<path d="M89.797 30.7441L94.4607 47.5817L84.6987 51.6947L85.0581 37.1621L89.797 30.7441Z" fill="#F4A28C"/>
<path opacity="0.31" d="M84.8491 40.3411C86.1117 39.851 87.2049 38.9895 87.9917 37.8647C87.9917 37.8647 88.2508 41.4293 84.8658 45.3881L84.8491 40.3411Z" fill="#CE8172"/>
<path d="M79.149 31.2921C79.149 31.2921 79.6338 37.2217 81.3054 40.9234C81.4641 41.2816 81.6902 41.6042 81.9707 41.8726C82.2512 42.1411 82.5807 42.3502 82.9402 42.4879C83.2996 42.6256 83.6821 42.6892 84.0656 42.6751C84.4491 42.6611 84.8261 42.5695 85.1751 42.4058C86.9804 41.5489 89.1869 39.8352 89.2872 36.6133L90.123 31.1893C90.1744 30.0848 89.8911 28.9911 89.3119 28.0583C88.7328 27.1255 87.8862 26.3993 86.8884 25.9795C83.2277 24.1886 78.6559 27.7018 79.149 31.2921Z" fill="#F4A28C"/>
<path d="M80.6116 31.2753C82.3878 31.0269 84.1297 30.5668 85.8018 29.9043C85.4288 30.7922 85.3179 31.7728 85.4828 32.7246C85.6477 33.6765 86.0811 34.5579 86.7296 35.2598C87.3452 35.9539 88.1772 36.407 89.0829 36.5415C89.9886 36.6759 90.9117 36.4833 91.6941 35.9967L90.2984 28.4905C90.1329 27.4089 89.6851 26.3934 89.0023 25.5517C88.3196 24.7099 87.4274 24.0732 86.4203 23.7091C85.5524 23.3861 84.6645 23.1228 83.7625 22.9208C81.4975 22.441 78.6558 24.4461 76.5079 23.3321C76.2914 23.2214 76.0508 23.1698 75.8092 23.1824C75.5677 23.195 75.3334 23.2714 75.1291 23.4042C74.9247 23.5369 74.7573 23.7215 74.6431 23.9401C74.5288 24.1587 74.4716 24.4038 74.4769 24.6517C74.5438 27.0081 75.5718 30.5299 78.8063 31.2325C79.4015 31.3496 80.0117 31.3641 80.6116 31.2753Z" fill="#24285B"/>
<path d="M86.0864 35.1995C86.0864 35.1995 85.7437 32.9374 87.4237 32.8089C89.1036 32.6803 89.6301 35.945 87.4237 36.6648L86.0864 35.1995Z" fill="#F4A28C"/>
<path d="M79.6341 35.0112L78.4389 37.5818C78.3711 37.7268 78.3402 37.887 78.3492 38.0474C78.3581 38.2079 78.4066 38.3635 78.4901 38.4995C78.5735 38.6356 78.6893 38.7477 78.8265 38.8255C78.9637 38.9033 79.1179 38.9442 79.2747 38.9443H81.5313L79.6341 35.0112Z" fill="#F4A28C"/>
<path d="M55.4462 41.215C55.4462 41.215 54.3847 44.7025 58.1374 44.2055C61.8901 43.7085 62.9516 43.3487 63.336 41.215C63.7205 39.0814 56.5996 38.9186 55.4462 41.215Z" fill="#F4A28C"/>
<path d="M81.5478 47.1528C81.5478 47.1528 81.2052 44.2994 84.891 44.2565C86.2495 44.885 87.7604 45.0822 89.2291 44.8226C90.6978 44.5629 92.0571 43.8585 93.1319 42.7998C93.1319 42.7998 100.144 42.7313 100.712 48.5066C101.281 54.2819 87.9918 69.003 87.9918 69.003C87.9918 69.003 79.9181 57.2125 81.5478 47.1528Z" fill="#68E1FD"/>
<path opacity="0.09" d="M105.944 55.8931C104.532 57.7217 103.505 59.8313 102.93 62.0881C102.354 64.345 102.242 66.6998 102.601 69.0032C103.947 76.5866 115.263 97.9741 102.994 112.704H113.023C112.831 113.398 118.807 94.1782 120.479 86.4749C121.507 81.8135 105.944 55.8931 105.944 55.8931Z" fill="black"/>
<path opacity="0.68" d="M81.5478 47.1528C81.5478 47.1528 81.2052 44.2994 84.891 44.2565C86.2495 44.885 87.7604 45.0822 89.2291 44.8226C90.6978 44.5629 92.0571 43.8585 93.1319 42.7998C93.1319 42.7998 100.144 42.7313 100.712 48.5066C101.281 54.2819 87.9918 69.003 87.9918 69.003C87.9918 69.003 79.9181 57.2125 81.5478 47.1528Z" fill="white"/>
<path d="M105.894 61.0003C103.805 52.2859 113.074 45.2252 120.537 49.9038C126.931 53.9139 133.074 61.463 134.662 75.67C138.197 107.786 134.662 123.843 134.662 123.843L128.051 122.532C128.051 122.532 123.036 80.6313 113.542 74.6589C109.555 72.1482 107.215 66.5957 105.894 61.0003Z" fill="#F4A28C"/>
<path d="M111.987 73.4503C111.987 73.4503 125.736 69.0888 132.548 63.2964C132.548 63.2964 134.854 69.8772 134.662 75.6696C129.59 78.3804 124.22 80.4574 118.665 81.8563C116.24 79.227 114.008 76.4174 111.987 73.4503Z" fill="#24285B"/>
<path d="M128.051 122.532C128.051 122.532 123.822 134.845 129.982 134.854C139.409 134.854 134.662 123.843 134.662 123.843L128.051 122.532Z" fill="#24285B"/>
<path opacity="0.46" d="M124.582 133.107C124.582 131.389 123.224 129.996 121.549 129.996C119.873 129.996 118.515 131.389 118.515 133.107V157.193C118.515 158.911 119.873 160.304 121.549 160.304C123.224 160.304 124.582 158.911 124.582 157.193V133.107Z" fill="white"/>
<path d="M82.183 112.738C82.183 112.738 42.901 120.125 49.4703 140.612C56.0396 161.1 61.4137 170.971 61.4137 170.971L69.4456 167.021L66.161 145.257C65.9931 144.147 66.0473 143.015 66.3202 141.928C66.5932 140.841 67.0791 139.822 67.7485 138.934C68.4179 138.045 69.2566 137.306 70.2137 136.761C71.1707 136.216 72.2261 135.876 73.3153 135.762C87.5989 134.263 114.737 129.233 113.032 112.738H82.183Z" fill="#24285B"/>
<path d="M113.065 112.738L111.076 190.714H102.384C102.384 190.714 102.769 141.641 87.6157 122.027L113.065 112.738Z" fill="#24285B"/>
<path d="M50.9912 149.704L66.1608 145.257L70.8495 170.972L72.2954 178.478L50.9912 182.325L60.8368 173.534L50.9912 149.704Z" fill="#68E1FD"/>
<path d="M69.4453 116.397L77.5608 135.822L87.0136 133.989L78.8396 113.492C75.6215 114.137 72.4744 115.11 69.4453 116.397Z" fill="#FFD200"/>
<path d="M99.9351 159.121L111.82 160.312L111.611 187.492C111.596 189.521 112.21 191.501 113.366 193.148L118.515 200.457L105.033 198.117L99.9351 196.901L101.757 189.951L99.9351 159.121Z" fill="#68E1FD"/>
<path d="M34.2089 192.445C38.6135 187.818 50.8244 188.349 52.4542 193.379C53.0727 195.281 53.5574 197.175 53.9168 198.803C54.0591 199.439 54.0777 200.098 53.9716 200.742C53.8654 201.385 53.6366 202.001 53.2982 202.554C52.9598 203.107 52.5185 203.587 51.9993 203.965C51.4802 204.343 50.8935 204.612 50.2728 204.758C44.5309 206.103 21.0202 206.3 34.2089 192.445Z" fill="#D3D3D3"/>
<path d="M62.1157 150.372L67.8325 148.924L71.6186 170.971L66.8713 171.957L62.1157 150.372Z" fill="#68E1FD"/>
<path opacity="0.35" d="M62.1157 150.372L67.8325 148.924L71.6186 170.971L66.8713 171.957L62.1157 150.372Z" fill="white"/>
<path d="M76.9424 100.588C76.9424 100.588 79.2575 108.608 82.1828 112.738H113.065C114.607 108.771 115.918 104.714 116.993 100.588C116.993 100.588 101.723 104.152 76.9424 100.588Z" fill="#FFD200"/>
<path d="M116.057 106.106H101.866V120.656H116.057V106.106Z" fill="#FFD200"/>
<path opacity="0.09" d="M116.057 106.106H101.866V120.656H116.057V106.106Z" fill="black"/>
<path d="M108.962 113.055C109.963 113.055 110.775 112.223 110.775 111.196C110.775 110.169 109.963 109.336 108.962 109.336C107.96 109.336 107.148 110.169 107.148 111.196C107.148 112.223 107.96 113.055 108.962 113.055Z" fill="white"/>
</svg>
