<svg width="640" height="416" viewBox="0 0 640 416" fill="none" xmlns="http://www.w3.org/2000/svg">
<path d="M633.928 253.894C563.841 284.459 357.724 381.144 292.725 411.665C286.712 414.505 279.882 416.001 272.927 416.001C265.973 416.001 259.142 414.505 253.129 411.665L5.98114 294.352C-3.84955 289.686 -0.70591 280.871 9.19747 276.308L354.071 113.458C355.847 112.639 357.853 112.208 359.895 112.208C361.937 112.208 363.944 112.639 365.719 113.458L634.128 237.504C635.926 238.324 637.42 239.522 638.453 240.972C639.486 242.422 640.02 244.072 639.999 245.747C639.979 247.423 639.405 249.063 638.337 250.496C637.268 251.929 635.746 253.103 633.928 253.894Z" fill="#7F8CFF"/>
<path d="M264.16 265.544C264.16 265.544 254.947 274.404 254.093 279.158C253.239 283.913 253.875 307.434 304.972 307.213C356.07 306.991 352.727 281.919 351.873 280.015C351.019 278.11 340.279 264.023 340.279 264.023" fill="#FA6C00"/>
<path d="M302.664 287.871C324.442 287.871 342.096 279.647 342.096 269.502C342.096 259.358 324.442 251.134 302.664 251.134C280.887 251.134 263.232 259.358 263.232 269.502C263.232 279.647 280.887 287.871 302.664 287.871Z" fill="#F7DD02"/>
<path d="M252.403 218.693C238.029 210.424 216.06 224.156 200.742 224.599C190.329 224.924 182.57 221.425 178.682 213.407C177.083 210.07 174.866 204.961 175.047 201.299C175.265 196.397 180.208 193.414 184.351 190.52C197.253 181.498 216.078 178.206 226.836 167.323C231.905 162.185 222.965 154.832 217.841 160.014C208.337 169.642 190.766 173.156 178.918 180.819C173.303 184.452 166.543 188.734 163.745 194.285C160.946 199.837 162.963 206.689 164.926 212.344C168.815 223.595 177.337 232.602 192.183 234.492C199.446 235.284 206.831 234.852 213.879 233.222C218.731 232.204 223.438 230.771 228.18 229.501C230.288 228.94 232.414 228.379 234.558 227.907C235.624 227.651 236.703 227.429 237.793 227.242C240.652 226.258 242.172 227.656 242.354 231.436C234.322 232.72 237.72 242.687 245.734 241.403C258.963 239.321 264.069 225.411 252.403 218.693Z" fill="#FA6C00"/>
<path d="M413.855 68.9398C405.532 70.7855 397.283 76.1307 390.232 79.955C382.528 84.1484 375.132 88.6519 367.863 93.3179C361.449 97.4522 370.498 104.717 376.858 100.627C387.457 93.6673 398.689 87.369 410.457 81.7859C413.383 80.4275 417.289 77.2233 420.542 79.9993C422.468 81.6383 422.232 85.4183 422.159 87.3821C421.746 92.5335 420.342 97.6005 417.998 102.399C409.185 121.978 389.832 136.758 371.716 150.815C365.792 155.422 374.787 162.716 380.71 158.124C404.842 139.313 432.426 117.342 434.807 88.5486C435.679 78.4637 428.901 65.588 413.855 68.9398Z" fill="#FA6C00"/>
<path d="M293.088 235.29C293.088 235.29 294.687 247.678 289.618 255.297C287.026 259.308 284.074 263.157 280.786 266.815C280.786 266.815 279.442 279.203 303.264 279.203C327.087 279.203 323.071 267.243 323.071 267.243C318.823 262.764 315.85 257.574 314.367 252.049C312.884 246.524 312.927 240.8 314.494 235.29" fill="#FEC617"/>
<path d="M323.071 267.213C318.829 262.737 315.859 257.553 314.376 252.033C312.893 246.514 312.933 240.796 314.494 235.29H307.226C307.698 250.056 306.717 267.405 295.069 278.627C297.741 279.036 300.455 279.234 303.174 279.218C327.033 279.159 323.071 267.213 323.071 267.213Z" fill="#FFA407"/>
<path d="M218.004 113.075V165.818C218.004 165.818 219.112 237.904 302.9 237.904C386.688 237.904 384.072 165.242 384.072 165.242V113.075" fill="#FEC617"/>
<path d="M384.09 165.227V113.075H336.118C336.517 147.036 334.173 184.689 307.043 211.665C297.696 220.846 286.342 228.545 273.554 234.375C283.045 236.802 292.95 237.993 302.9 237.904C386.707 237.904 384.09 165.227 384.09 165.227Z" fill="#FFA407"/>
<path d="M301.066 152.838C346.919 152.838 384.091 135.035 384.091 113.074C384.091 91.1134 346.919 73.3105 301.066 73.3105C255.213 73.3105 218.041 91.1134 218.041 113.074C218.041 135.035 255.213 152.838 301.066 152.838Z" fill="#F7DD02"/>
<path d="M302.937 143.492C341.184 143.492 372.188 129.404 372.188 112.026C372.188 94.6481 341.184 80.5605 302.937 80.5605C264.691 80.5605 233.687 94.6481 233.687 112.026C233.687 129.404 264.691 143.492 302.937 143.492Z" fill="#FA6C00"/>
<path d="M238.629 67.5673C236.975 63.9497 235.485 60.2878 234.013 56.5964C231.942 51.3989 229.598 45.9356 228.998 40.3542C230.179 37.7702 234.449 35.7916 237.448 35.2158C241.227 34.4775 245.098 35.7916 248.914 35.7326C253.911 35.7326 257.854 34.064 262.506 32.9862C267.314 32.0142 272.366 32.204 277.043 33.5325C286.129 35.7916 295.214 35.009 302.719 30.1807C306.971 27.4343 310.278 25.1899 315.639 24.0382C323.925 22.2663 332.484 23.5214 337.953 29.1914C342.878 34.3003 343.95 41.0039 338.717 46.2605C336.064 48.9183 332.175 50.07 328.25 50.9855C324.616 51.8271 321.163 53.5842 317.347 54.1305H316.929C313.404 54.603 309.897 54.4406 306.353 55.2823C301.938 56.3454 297.867 58.132 293.524 59.3871C287.782 61.0556 282.204 60.4059 276.298 59.8005C268.775 59.0327 264.796 60.9227 258.963 64.4074L257.909 64.998C253.794 67.0225 249.052 68.0473 244.244 67.9512C242.362 67.9527 240.484 67.8243 238.629 67.5673Z" fill="black"/>
<path d="M374.714 27.6998C376.022 25.8688 377.367 23.905 378.494 21.8821C378.913 18.2503 379.095 14.603 379.039 10.9555C378.73 9.4252 378.73 7.86425 379.039 6.3339C379.063 6.04206 379.169 5.75856 379.348 5.50473C379.527 5.25091 379.775 5.03337 380.072 4.86849C380.369 4.70361 380.709 4.59568 381.065 4.55283C381.421 4.50998 381.784 4.53332 382.128 4.62109C382.951 4.90707 383.663 5.36792 384.191 5.95515C384.718 6.54238 385.042 7.2343 385.126 7.95812C385.417 9.16891 385.635 10.3945 385.835 11.62C388.148 8.27333 390.158 4.7942 391.85 1.21023C392.994 -1.04891 397.464 0.147105 396.301 2.42101L395.066 4.85734C396.189 3.51953 397.403 2.23298 398.7 1.00351C400.263 -0.473051 404.006 0.471949 402.898 2.65726C401.396 5.60913 399.616 8.46244 397.573 11.1918C399.245 9.51836 400.85 7.80554 402.389 6.05336C404.206 4.06 408.076 6.15672 406.314 8.16484C404.145 10.6258 401.862 13.0129 399.463 15.3262C400.808 14.8094 402.171 14.3221 403.552 13.8496C406.332 12.9046 408.494 16.3007 405.696 17.2457C402.898 18.1907 400.408 19.1505 397.828 20.1988L397.683 20.4351C393.648 26.3413 389.469 32.1688 385.144 37.9176C383.563 40.0143 379.693 37.9176 381.219 35.8061L383.2 33.1483C382.844 33.0694 382.511 32.9335 382.221 32.7483C381.93 32.5632 381.689 32.3327 381.51 32.0704C381.152 32.2621 380.737 32.3706 380.309 32.3839C379.881 32.3972 379.456 32.3149 379.082 32.146C378.707 31.977 378.396 31.7279 378.184 31.4256C377.971 31.1233 377.865 30.7794 377.876 30.4314C377.412 30.604 376.894 30.654 376.394 30.5746C375.894 30.4951 375.437 30.29 375.088 29.9883C374.738 29.6866 374.514 29.3035 374.447 28.8929C374.38 28.4823 374.474 28.065 374.714 27.6998Z" fill="#FFC285"/>
<path d="M388.143 12.7719C390.759 15.0753 393.34 17.8365 392.25 21.1587C392.031 21.8232 390.741 21.5869 390.959 20.9077C391.922 17.9546 389.542 15.5773 387.325 13.5249C386.671 13.0524 387.58 12.3289 388.143 12.7719Z" fill="#6D320B"/>
<path d="M391.177 10.6306C392.828 7.82167 394.278 4.93757 395.52 1.99274C395.72 1.50547 396.701 1.68266 396.483 2.18469C395.223 5.20453 393.748 8.1626 392.067 11.0441C391.777 11.487 390.904 11.1031 391.177 10.6306Z" fill="#6D320B"/>
<path d="M395.702 12.6682C398.405 9.52593 400.581 6.10457 402.171 2.49469C402.389 2.00743 403.352 2.18461 403.134 2.68664C401.522 6.35332 399.316 9.82918 396.574 13.0226C396.229 13.4803 395.338 13.0964 395.702 12.6682Z" fill="#6D320B"/>
<path d="M397.9 16.7583C400.451 14.4001 402.709 11.8431 404.642 9.12445C404.969 8.68148 405.841 9.12445 405.514 9.50836C403.54 12.2849 401.233 14.8963 398.627 17.3046C398.191 17.7033 397.464 17.157 397.9 16.7583Z" fill="#6D320B"/>
<path d="M280.805 141.794C293.634 143.787 311.696 145.515 329.867 142.577C340.689 140.74 351.105 137.579 360.759 133.2C360.94 118.435 355.453 103.669 350.674 89.376L310.878 97.7924C308.225 98.1172 291.526 122.052 279.605 141.75H280.005C280.273 141.719 280.545 141.734 280.805 141.794Z" fill="#E2E2E2"/>
<path d="M310.551 83.7055C312.913 73.8864 318.364 62.7088 313.822 53.436C314.312 52.1514 318.528 51.8561 319.073 51.2064L326.178 49.0211C339.753 48.5847 352.604 43.934 362.085 36.0273C367.721 31.3058 372.655 26.0625 376.785 20.4053C381.655 22.7393 385.994 25.736 389.614 29.2647C391.527 31.0307 393.282 32.9058 394.866 34.8756C387.888 46.6881 374.514 63.7719 353.072 70.3131C353.072 70.3131 352.309 76.8247 351.673 91.93C351.673 91.93 335.627 103.742 310.042 99.5786C310.206 93.7314 310.351 89.6413 310.551 83.7055Z" fill="#68E1FD"/>
<path d="M317.311 50.9258C317.311 50.9258 290.29 73.4434 239.265 94.381C239.265 94.381 242.136 107.404 248.877 112.366C248.877 112.366 307.771 90.6896 321.326 71.3319" fill="#68E1FD"/>
<path d="M337.644 35.3335C337.644 35.3335 343.314 48.6225 332.847 54.6912C322.38 60.7599 308.189 48.1205 312.059 36.2489C315.93 24.3774 330.975 23.9049 337.644 35.3335Z" fill="#FFC285"/>
<path d="M310.678 52.8454C311.537 52.999 312.429 52.9725 313.272 52.7685C314.114 52.5644 314.879 52.1894 315.494 51.6789C317.038 50.409 316.893 48.6076 316.911 46.9539C316.842 45.8799 317.121 44.8101 317.721 43.8513C318.32 42.8926 319.219 42.0785 320.327 41.4906C323.071 40.014 326.524 39.5563 329.013 37.6958C329.267 37.5039 329.522 37.2972 329.758 37.0757C329.434 37.3196 329.081 37.5372 328.704 37.7254C324.652 39.7187 318.655 40.206 316.766 40.9886C314.876 41.7711 317.892 47.8398 314.512 50.5124C311.132 53.185 303.155 36.485 307.771 31.952C312.386 27.419 327.65 22.1033 334.264 29.6338C334.084 30.3075 333.86 30.9729 333.592 31.6272C333.434 33.6649 332.508 35.6137 330.939 37.2086C328.468 39.7039 324.888 40.265 321.635 41.7859C320.608 42.2042 319.733 42.8327 319.096 43.6094C318.459 44.3861 318.081 45.2844 318.001 46.2156C318.14 47.7836 317.931 49.3591 317.383 50.8668C316.797 51.9235 315.776 52.7815 314.497 53.2934C313.217 53.8053 311.757 53.9393 310.369 53.6722C309.751 53.495 310.06 52.7272 310.678 52.8454Z" fill="black"/>
<path d="M212.753 113.355C216.043 111.606 219.494 110.066 223.075 108.748C220.543 109.368 218.029 110.048 215.534 110.786C212.699 111.628 210.9 108.099 213.716 107.242C217.217 106.199 220.761 105.273 224.347 104.466C222.875 104.274 221.421 104.053 219.949 103.816C217.005 103.314 217.569 99.5345 220.531 100.022C223.493 100.509 226.218 100.878 229.089 101.173L229.362 101.041C232.718 99.6723 236.091 98.3384 239.483 97.0391C240.671 101.269 242.835 105.277 245.862 108.852C243.085 111.581 240.483 114.425 238.066 117.371C237.275 118.782 236.207 120.078 234.904 121.21C234.681 121.441 234.397 121.627 234.073 121.755C233.749 121.883 233.393 121.95 233.033 121.95C232.672 121.95 232.316 121.883 231.992 121.755C231.668 121.627 231.384 121.441 231.161 121.21C230.678 120.597 230.409 119.889 230.38 119.161C230.351 118.434 230.564 117.713 230.997 117.076C231.597 115.954 232.269 114.832 232.942 113.739C228.7 115.463 224.618 117.437 220.731 119.645C218.223 120.989 215.279 117.962 217.896 116.604L220.622 115.127C218.778 115.702 216.898 116.195 214.988 116.604C212.735 117.165 210.318 114.64 212.753 113.355Z" fill="#68E1FD"/>
<path d="M227.872 112.1C224.569 113.638 221.378 115.329 218.313 117.165C217.805 117.475 217.132 116.884 217.641 116.574C220.767 114.676 224.025 112.926 227.399 111.332C227.962 111.125 228.417 111.834 227.872 112.1Z" fill="#68E1FD"/>
<path d="M225.546 108.305C221.13 109.659 216.956 111.487 213.135 113.739C212.626 114.034 211.954 113.443 212.462 113.148C216.343 110.85 220.584 108.983 225.073 107.596C225.691 107.449 226.145 108.157 225.546 108.305Z" fill="#68E1FD"/>
<path d="M226.599 103.964C222.843 104.742 219.191 105.82 215.696 107.183C215.115 107.404 214.661 106.696 215.242 106.459C218.801 105.072 222.52 103.974 226.345 103.181C227.09 103.049 227.217 103.875 226.599 103.964Z" fill="#68E1FD"/>
<path d="M212.753 113.355C216.043 111.606 219.494 110.066 223.075 108.748C220.543 109.368 218.029 110.048 215.534 110.786C212.699 111.628 210.9 108.099 213.716 107.242C217.217 106.199 220.761 105.273 224.347 104.466C222.875 104.274 221.421 104.053 219.949 103.816C217.005 103.314 217.569 99.5345 220.531 100.022C223.493 100.509 226.218 100.878 229.089 101.173L229.362 101.041C232.718 99.6723 236.091 98.3384 239.483 97.0391C240.671 101.269 242.835 105.277 245.862 108.852C243.085 111.581 240.483 114.425 238.066 117.371C237.275 118.782 236.207 120.078 234.904 121.21C234.681 121.441 234.397 121.627 234.073 121.755C233.749 121.883 233.393 121.95 233.033 121.95C232.672 121.95 232.316 121.883 231.992 121.755C231.668 121.627 231.384 121.441 231.161 121.21C230.678 120.597 230.409 119.889 230.38 119.161C230.351 118.434 230.564 117.713 230.997 117.076C231.597 115.954 232.269 114.832 232.942 113.739C228.7 115.463 224.618 117.437 220.731 119.645C218.223 120.989 215.279 117.962 217.896 116.604L220.622 115.127C218.778 115.702 216.898 116.195 214.988 116.604C212.735 117.165 210.318 114.64 212.753 113.355Z" fill="#FFC285"/>
<path d="M227.872 112.1C224.569 113.638 221.378 115.329 218.313 117.165C217.805 117.475 217.132 116.884 217.641 116.574C220.767 114.676 224.025 112.926 227.399 111.332C227.962 111.125 228.417 111.834 227.872 112.1Z" fill="#6D320B"/>
<path d="M225.546 108.305C221.13 109.659 216.956 111.487 213.135 113.739C212.626 114.034 211.954 113.443 212.462 113.148C216.343 110.85 220.584 108.983 225.073 107.596C225.691 107.449 226.145 108.157 225.546 108.305Z" fill="#6D320B"/>
<path d="M226.599 103.964C222.843 104.742 219.191 105.82 215.696 107.183C215.115 107.404 214.661 106.696 215.242 106.459C218.801 105.072 222.52 103.974 226.345 103.181C227.09 103.049 227.217 103.875 226.599 103.964Z" fill="#6D320B"/>
<path d="M103.525 137.836C101.235 133.229 96.8923 126.895 89.6419 127.5C88.2327 127.614 86.8923 128.051 85.7762 128.759C84.6601 129.468 83.8141 130.419 83.3365 131.502C82.0645 134.366 83.3365 137.157 84.1178 139.977C84.3177 140.789 85.3898 143.683 84.5176 144.407C83.6454 145.13 81.8646 142.753 81.1377 141.985C79.456 139.842 76.8729 138.267 73.8692 137.556C65.7648 136.079 63.4752 143.713 65.5649 148.541C66.9459 151.745 73.2514 150.372 71.8703 147.065C71.4524 146.09 70.453 143.831 71.725 142.989C72.997 142.148 74.0872 143.329 74.9958 144.112C76.3314 145.589 77.7693 147.004 79.3024 148.349C82.5187 150.609 87.316 150.874 89.8418 147.759C92.3676 144.643 90.9866 140.376 90.0053 137.098C89.4784 135.356 88.4244 131.635 92.2404 133.259C94.6209 134.278 96.329 137.379 97.2557 139.254C98.7639 142.443 105.088 141.07 103.525 137.836Z" fill="#E54B5D"/>
<path d="M340.282 359.362C337.993 354.755 333.65 348.42 326.399 349.026C324.99 349.14 323.65 349.576 322.534 350.285C321.417 350.993 320.571 351.944 320.094 353.027C318.822 355.892 320.094 358.682 320.875 361.503C321.075 362.315 322.147 365.209 321.275 365.932C320.403 366.656 318.622 364.279 317.895 363.511C316.213 361.367 313.63 359.793 310.627 359.081C302.522 357.605 300.233 365.238 302.322 370.067C303.703 373.271 310.009 371.898 308.628 368.59C308.21 367.616 307.21 365.356 308.482 364.515C309.754 363.673 310.845 364.854 311.753 365.637C313.089 367.115 314.527 368.53 316.06 369.875C319.276 372.134 324.073 372.4 326.599 369.284C329.125 366.169 327.744 361.901 326.763 358.623C326.236 356.881 325.182 353.16 328.998 354.784C331.378 355.803 333.086 358.904 334.013 360.779C335.521 363.968 341.845 362.595 340.282 359.362Z" fill="#E54B5D"/>
<path d="M157.694 66.7109C147.172 66.7109 147.154 80 157.694 80C168.233 80 168.251 66.7109 157.694 66.7109Z" fill="#68E1FD"/>
<path d="M476.691 104.068C471.422 99.6382 463.099 106.401 468.369 110.831C472.795 114.527 475.907 119.128 477.376 124.145C478.844 129.162 478.614 134.409 476.709 139.328C474.511 145.234 485.795 147.759 488.067 141.868C490.501 135.316 490.73 128.354 488.729 121.706C486.729 115.058 482.572 108.967 476.691 104.068Z" fill="#22B573"/>
<path d="M464.28 203.558C462.729 202.336 460.663 201.639 458.502 201.609H457.52C455.358 201.633 453.289 202.331 451.742 203.558C450.211 204.804 449.351 206.493 449.351 208.254C449.351 210.015 450.211 211.704 451.742 212.949C453.293 214.172 455.36 214.869 457.52 214.898H458.502C460.664 214.875 462.733 214.177 464.28 212.949C465.812 211.704 466.672 210.015 466.672 208.254C466.672 206.493 465.812 204.804 464.28 203.558Z" fill="#FEC617"/>
<path d="M150.116 148.173C148.565 146.95 146.499 146.253 144.338 146.224H143.356C141.194 146.247 139.125 146.945 137.578 148.173C136.047 149.419 135.187 151.107 135.187 152.868C135.187 154.629 136.047 156.318 137.578 157.564C139.129 158.786 141.195 159.483 143.356 159.513H144.338C146.5 159.489 148.569 158.791 150.116 157.564C151.647 156.318 152.508 154.629 152.508 152.868C152.508 151.107 151.647 149.419 150.116 148.173Z" fill="#E54B5D"/>
<path d="M475.419 242.865L452.16 226.815C450.6 225.612 448.532 224.941 446.381 224.941C444.231 224.941 442.163 225.612 440.603 226.815C437.677 229.192 437.223 233.873 440.603 236.205L463.862 252.256C465.422 253.458 467.49 254.129 469.641 254.129C471.791 254.129 473.859 253.458 475.419 252.256C478.345 249.878 478.799 245.198 475.419 242.865Z" fill="#68E1FD"/>
<path d="M291.531 378.721L268.271 362.671C266.711 361.468 264.643 360.798 262.493 360.798C260.342 360.798 258.274 361.468 256.714 362.671C253.789 365.048 253.334 369.729 256.714 372.062L279.974 388.112C281.533 389.315 283.602 389.985 285.752 389.985C287.902 389.985 289.971 389.315 291.531 388.112C294.456 385.735 294.91 381.054 291.531 378.721Z" fill="#68E1FD"/>
<path d="M147.136 273.237C146.172 273.666 143.738 273.872 144.537 272.617C144.81 272.189 145.809 271.894 146.354 271.643C147.801 270.95 149.097 270.067 150.188 269.029C151.21 268.081 151.797 266.876 151.85 265.616C151.903 264.357 151.419 263.121 150.479 262.119C148.335 259.948 144.773 259.535 141.575 259.328C140.303 259.24 137.378 259.432 136.487 258.472C134.961 256.848 137.832 255.253 139.413 254.736C143.574 253.363 141.757 247.796 137.596 249.184C132.617 250.823 127.965 254.249 129.237 259.092C130.636 264.393 136.996 264.555 142.32 265.116C145.591 265.456 144.137 265.914 142.32 266.888C141.188 267.456 140.129 268.114 139.158 268.852C138.263 269.576 137.612 270.476 137.268 271.464C136.925 272.451 136.9 273.495 137.196 274.493C138.813 279.35 145.973 280.31 150.77 278.199C154.768 276.442 151.188 271.466 147.136 273.237Z" fill="#68E1FD"/>
<path d="M387.252 147.715L433.952 308.055C435.079 311.909 427.756 313.563 426.684 309.694L379.929 149.354C378.802 145.5 386.125 143.846 387.198 147.715H387.252Z" fill="#373EA6"/>
<path d="M343.387 166.703L390.087 327.043C391.214 330.897 383.891 332.551 382.819 328.682L336.118 168.328C334.992 164.474 342.315 162.82 343.387 166.689V166.703Z" fill="#373EA6"/>
<path d="M392.104 173.008L348.293 192.897C344.023 194.832 340.189 189.516 344.459 187.567L388.288 167.678C392.559 165.743 396.393 171.059 392.122 173.008H392.104Z" fill="#373EA6"/>
<path d="M396.683 195.289L354.653 214.366C350.382 216.301 346.548 210.985 350.818 209.036L392.849 189.959C397.119 188.025 400.953 193.34 396.683 195.289Z" fill="#373EA6"/>
<path d="M401.771 213.348L359.74 232.337C355.47 234.271 351.636 228.956 355.906 227.007L397.882 207.959C402.152 206.025 405.987 211.34 401.716 213.289L401.771 213.348Z" fill="#373EA6"/>
<path d="M408.367 232.765L366.773 251.65C362.502 253.584 358.668 248.269 362.939 246.32L404.533 227.434C408.803 225.5 412.637 230.816 408.367 232.765Z" fill="#373EA6"/>
<path d="M414.092 250.543L372.461 269.458C368.191 271.392 364.357 266.077 368.627 264.128L410.312 245.213C414.582 243.278 418.416 248.594 414.146 250.543H414.092Z" fill="#373EA6"/>
<path d="M420.452 271.199L376.622 291.089C372.352 293.023 368.518 287.707 372.788 285.758L416.617 265.869C420.888 263.935 424.722 269.25 420.452 271.199Z" fill="#373EA6"/>
</svg>
